<ttFont>
<head>
    <!-- Most of this table will be recalculated by the compiler -->
    <tableVersion value="1.0"/>
    <fontRevision value="4.002"/>
    <checkSumAdjustment value="0xf5e75477"/>
    <magicNumber value="0x5f0f3cf5"/>
    <flags value="00000000 00000011"/>
    <unitsPerEm value="1000"/>
    <created value="Sat Mar  2 14:12:54 2019"/>
    <modified value="Sat Mar  2 14:12:54 2019"/>
    <xMin value="-610"/>
    <yMin value="-616"/>
    <xMax value="2514"/>
    <yMax value="1121"/>
    <macStyle value="00000000 00000010"/>
    <lowestRecPPEM value="3"/>
    <fontDirectionHint value="2"/>
    <indexToLocFormat value="0"/>
    <glyphDataFormat value="0"/>
  </head>
          <CharString index="0">
            483 callgsubr
            -28 78 400 callgsubr
            7 -98 callsubr
            return
          </CharString>
          <CharString index="1">
            rmoveto
            41 7 35 62 callsubr
            -40 -7 -34 521 callsubr
            return
          </CharString>
          <CharString index="2">
            -107 callgsubr
            414 42 callsubr
            -134 -93 -92 -138 -24 hvcurveto
            return
          </CharString>
          <CharString index="3">
            -44 -8 -32 -34 -45 hhcurveto
            -8 -10 2 2 -9 hvcurveto
            -24 -138 rlineto
            -8 23 26 -3 25 hhcurveto
            120 101 85 450 callsubr
            123 22 -55 102 -128 hhcurveto
            -64 -53 -23 -37 -37 hvcurveto
            22 128 rlineto
            return
          </CharString>
          <CharString index="4">
            -39 -7 511 callgsubr
            201 48 88 -88 326 -155 155 hstemhm
            17 193 -193 581 hintmask 01101010
            330 413 rmoveto
            45 35 -27 -56 -10 hvcurveto
            -174 hlineto
            55 17 38 28 49 hhcurveto
            233 -219 rmoveto
            -208 hlineto
            hintmask 10010100
            -23 -15 -25 -21 -38 hhcurveto
            -43 -31 26 66 7 hvcurveto
            371 hlineto
            6 15 3 16 3 15 rrcurveto
            hintmask 01010010
            173 30 -98 107 -166 hhcurveto
            -168 -136 -109 -178 -32 hvcurveto
            -179 -31 99 -109 166 hhcurveto
            hintmask 01101010
            141 120 86 115 45 hvcurveto
            return
          </CharString>
          <CharString index="5">
            28 156 rlineto
            -1 -8 -8 -1 -7 hhcurveto
            -59 -29 37 61 10 hvcurveto
            return
          </CharString>
          <CharString index="6">
            -138 -25 76 -100 119 hhcurveto
            64 51 23 39 35 hvcurveto
            return
          </CharString>
          <CharString index="7">
            -150 rlineto
            return
          </CharString>
          <CharString index="8">
            765 423 rmoveto
            175 -117 118 -185 -246 -170 -175 -253 -175 118 -120 181 249 170 179 251 vhcurveto
            -524 -112 rmoveto
            120 75 104 122 86 47 -51 -84 -119 -73 -106 -122 -88 -47 53 83 vhcurveto
            return
          </CharString>
          <CharString index="9">
            13 callsubr
            -102 callsubr
            return
          </CharString>
          <CharString index="10">
            -150 150 return
          </CharString>
          <CharString index="11">
            -173 -28 130 -75 133 411 callgsubr
            return
          </CharString>
          <CharString index="12">
            55 296 rmoveto
            -201 -36 113 -102 170 hhcurveto
            173 151 97 206 36 hvcurveto
            72 409 -12 callsubr
            -72 -409 rlineto
            -72 -13 -43 -46 -74 hhcurveto
            -74 -24 46 72 13 hvcurveto
            71 409 rlineto
            -195 hlineto
            return
          </CharString>
          <CharString index="13">
            -97 callsubr
            hstemhm
            return
          </CharString>
          <CharString index="14">
            -40 47 59 646 callgsubr
            52 51 callsubr
            128 hlineto
            return
          </CharString>
          <CharString index="15">
            -81 callsubr
            endchar
          </CharString>
          <CharString index="16">
            rmoveto
            -95 callgsubr
            return
          </CharString>
          <CharString index="17">
            581 705 rmoveto
            -451 535 callgsubr
            452 hlineto
            16 callgsubr
            27 149 rlineto
            -225 hlineto
            20 117 rlineto
            255 hlineto
            return
          </CharString>
          <CharString index="18">
            57 -18 -50 47 -93 hhcurveto
            -117 -123 -67 -170 -29 hvcurveto
            return
          </CharString>
          <CharString index="19">
            236 201 -92 callgsubr
            return
          </CharString>
          <CharString index="20">
            103 callgsubr
            -86 -15 -62 -66 return
          </CharString>
          <CharString index="21">
            hlineto
            -104 callgsubr
            return
          </CharString>
          <CharString index="22">
            383 callgsubr
            717 20 callgsubr
            return
          </CharString>
          <CharString index="23">
            -33 callsubr
            -9 hvcurveto
            -63 -11 -44 -35 -53 138 callsubr
            return
          </CharString>
          <CharString index="24">
            53 10 33 35 51 hhcurveto
            56 11 -48 -49 -9 hvcurveto
            return
          </CharString>
          <CharString index="25">
            47 23 46 47 32 15 -26 -34 -6 vhcurveto
            -85 -15 -87 -20 -82 hhcurveto
            -137 hlineto
            -35 -198 rlineto
            -145 -27 88 -91 154 hhcurveto
            return
          </CharString>
          <CharString index="26">
            hlineto
            -78 callgsubr
            return
          </CharString>
          <CharString index="27">
            -39 -220 rlineto
            -29 -5 -12 -35 -37 hhcurveto
            -33 -5 27 37 6 hvcurveto
            return
          </CharString>
          <CharString index="28">
            0 callsubr
            -20 -115 -20 24 -32 16 -49 1 rlinecurve
            -107 4 -92 -75 -20 -117 -9 -50 5 -46 16 -38 rrcurveto
            -25 -21 -34 -22 -54 hhcurveto
            return
          </CharString>
          <CharString index="29">
            -51 callsubr
            15 84 rlineto
            return
          </CharString>
          <CharString index="30">
            -33 -18 24 35 7 hvcurveto
            44 247 453 callsubr
            -44 -247 rlineto
            -35 -6 -23 -24 -35 hhcurveto
            return
          </CharString>
          <CharString index="31">
            -69 -23 48 62 11 261 callsubr
            187 hlineto
            -33 -188 rlineto
            1 vlineto
            -60 -10 -36 -44 -60 hhcurveto
            406 291 -101 callgsubr
            return
          </CharString>
          <CharString index="32">
            5 27 rlineto
            49 9 28 48 57 hhcurveto
            return
          </CharString>
          <CharString index="33">
            -64 -11 -50 -44 -70 hhcurveto
            -67 -35 42 59 11 hvcurveto
            70 13 61 36 66 hhcurveto
            149 hlineto
            return
          </CharString>
          <CharString index="34">
            103 -5 181 274 262 582 callgsubr
            37 202 hintmask 10110000
            525 callgsubr
            112 -148 212 hhcurveto
            177 145 102 160 64 hvcurveto
            -212 hlineto
            -52 -34 -52 -29 -58 hhcurveto
            -90 -47 70 108 19 hvcurveto
            108 19 71 69 90 hhcurveto
            hintmask 11010000
            58 42 -29 -52 16 hvcurveto
            211 hlineto
            hintmask 10110000
            160 -6 -109 102 -177 hhcurveto
            -212 -165 -148 -210 -37 hvcurveto
            return
          </CharString>
          <CharString index="35">
            rmoveto
            -49 -1 -32 34 9 49 rrcurveto
            return
          </CharString>
          <CharString index="36">
            -23 callgsubr
            -173 hlineto
            return
          </CharString>
          <CharString index="37">
            57 10 -37 45 -69 hhcurveto
            -70 -53 541 callgsubr
            -57 346 callgsubr
            69 53 44 57 10 hvcurveto
            return
          </CharString>
          <CharString index="38">
            153 -153 return
          </CharString>
          <CharString index="39">
            rmoveto
            -24 -133 268 98 249 callgsubr
            return
          </CharString>
          <CharString index="40">
            -76 -13 -54 -41 -56 hhcurveto
            -55 -40 42 75 14 hvcurveto
            76 13 54 40 56 hhcurveto
            return
          </CharString>
          <CharString index="41">
            590 -101 callgsubr
            return
          </CharString>
          <CharString index="42">
            -34 -192 -59 callsubr
            return
          </CharString>
          <CharString index="43">
            -54 -306 rlineto
            -60 -11 -42 -38 -57 hhcurveto
            -56 -31 38 65 12 hvcurveto
            53 301 -12 callsubr
            -57 -326 rlineto
            return
          </CharString>
          <CharString index="44">
            52 callgsubr
            -128 -119 -66 -143 -25 hvcurveto
            return
          </CharString>
          <CharString index="45">
            rmoveto
            281 callgsubr
            -3 -14 -4 363 callgsubr
            return
          </CharString>
          <CharString index="46">
            rmoveto
            46 40 34 45 8 hvcurveto
            46 8 -28 35 -46 hhcurveto
            -45 -41 -35 -46 -8 hvcurveto
            -45 -8 29 -34 45 hhcurveto
            endchar
          </CharString>
          <CharString index="47">
            -23 -129 rlineto
            38 -22 -43 23 -65 hhcurveto
            -134 -93 -92 -138 -24 hvcurveto
            -101 callsubr
            return
          </CharString>
          <CharString index="48">
            rlineto
            181 hlineto
            47 269 rlineto
            61 14 35 39 54 hhcurveto
            49 19 -37 -44 -7 hvcurveto
            return
          </CharString>
          <CharString index="49">
            -45 callsubr
            42 hhcurveto
            return
          </CharString>
          <CharString index="50">
            -20 -111 -4 callsubr
            87 hlineto
            endchar
          </CharString>
          <CharString index="51">
            rmoveto
            -146 88 -22 -132 145 -84 175 84 23 132 rlineto
            endchar
          </CharString>
          <CharString index="52">
            -23 -7 140 callsubr
            226 278 219 -154 154 hstemhm
            72 213 80 212 hintmask 01101100
            577 214 rmoveto
            hintmask 01011100
            205 -292 -4 96 vvcurveto
            32 25 19 35 vhcurveto
            hintmask 10101100
            40 22 -25 -40 -7 hvcurveto
            211 hlineto
            137 15 -111 82 -159 hhcurveto
            -165 -120 -84 -149 1 hvcurveto
            1 -205 292 20 -101 vvcurveto
            -33 -27 -17 -37 vhcurveto
            hintmask 01101100
            -48 -22 27 45 4 hvcurveto
            -207 hlineto
            -152 -17 118 -74 168 hhcurveto
            175 105 95 126 hvcurveto
            return
          </CharString>
          <CharString index="53">
            -71 callgsubr
            2 9 rlineto
            return
          </CharString>
          <CharString index="54">
            -61 callgsubr
            -79 callgsubr
            348 callgsubr
            return
          </CharString>
          <CharString index="55">
            33 15 29 24 40 hhcurveto
            40 24 -23 -40 -7 -1 -8 -1 -7 hvcurveto
            -111 hlineto
            -156 -124 -76 -123 return
          </CharString>
          <CharString index="56">
            hhcurveto
            -34 -10 26 31 5 hvcurveto
            return
          </CharString>
          <CharString index="57">
            hlineto
            -102 -90 -49 -104 -18 hvcurveto
            -136 -24 124 -31 73 hhcurveto
            34 hlineto
            45 21 -17 -32 -6 hvcurveto
            return
          </CharString>
          <CharString index="58">
            217 -230 335 callgsubr
            101 15 63 66 19 110 24 callsubr
            478 160 callgsubr
            return
          </CharString>
          <CharString index="59">
            -100 callsubr
            88 117 callsubr
            return
          </CharString>
          <CharString index="60">
            rmoveto
            -31 -26 18 callgsubr
            return
          </CharString>
          <CharString index="61">
            -73 -22 -57 -54 -16 -91 -7 -38 1 -33 3 -21 rrcurveto
            147 hlineto
            -2 23 0 26 4 23 rrcurveto
            42 8 24 25 29 hhcurveto
            31 13 -32 -42 -8 hvcurveto
            return
          </CharString>
          <CharString index="62">
            -39 callsubr
            21 return
          </CharString>
          <CharString index="63">
            -22 callgsubr
            endchar
          </CharString>
          <CharString index="64">
            hlineto
            -95 callgsubr
            return
          </CharString>
          <CharString index="65">
            -11 callgsubr
            25 510 callgsubr
            446 -139 142 return
          </CharString>
          <CharString index="66">
            43 58 12 hvcurveto
            33 190 rlineto
            return
          </CharString>
          <CharString index="67">
            hhcurveto
            -173 -111 -105 -133 -19 hvcurveto
            -139 -20 88 -109 165 hhcurveto
            return
          </CharString>
          <CharString index="68">
            -29 callgsubr
            34 return
          </CharString>
          <CharString index="69">
            320 299 rmoveto
            383 callgsubr
            return
          </CharString>
          <CharString index="70">
            162 -161 116 -116 161 -116 116 hstemhm
            return
          </CharString>
          <CharString index="71">
            16 52 hhcurveto
            52 241 callsubr
            384 callgsubr
            return
          </CharString>
          <CharString index="72">
            103 -82 callgsubr
            return
          </CharString>
          <CharString index="73">
            -143 93 rmoveto
            31 30 27 48 vhcurveto
            90 -2 hlineto
            -56 -11 -56 -40 -50 hhcurveto
            -32 -19 15 25 hvcurveto
            endchar
          </CharString>
          <CharString index="74">
            -75 callsubr
            48 22 -36 -52 return
          </CharString>
          <CharString index="75">
            rmoveto
            36 7 33 24 37 hhcurveto
            43 19 -30 -33 -6 hvcurveto
            -5 -30 -22 -21 -30 -19 -57 2 -26 31 7 40 rrcurveto
            182 -601 rmoveto
            return
          </CharString>
          <CharString index="76">
            rmoveto
            -58 71 callsubr
            return
          </CharString>
          <CharString index="77">
            -22 -123 rlineto
            36 -30 -47 23 -65 hhcurveto
            return
          </CharString>
          <CharString index="78">
            -68 -12 -36 126 callsubr
            return
          </CharString>
          <CharString index="79">
            496 callsubr
            90 144 return
          </CharString>
          <CharString index="80">
            hhcurveto
            -56 hlineto
            407 callgsubr
            61 hlineto
            64 42 -1 -105 47 hvcurveto
            48 -55 -26 0 -90 hhcurveto
            -53 hlineto
            407 callgsubr
            57 hlineto
            return
          </CharString>
          <CharString index="81">
            rmoveto
            -37 -28 341 callsubr
            34 25 39 hhcurveto
            46 16 -35 -35 -6 hvcurveto
            -39 -7 -30 -31 -43 hhcurveto
            return
          </CharString>
          <CharString index="82">
            241 224 rmoveto
            -39 -224 322 callgsubr
            40 224 333 481 rlineto
            -221 hlineto
            -172 -273 -76 273 rlineto
            -224 hlineto
            return
          </CharString>
          <CharString index="83">
            -35 callgsubr
            48 274 return
          </CharString>
          <CharString index="84">
            -2 -13 161 167 134 146 160 hstemhm
            36 557 -481 190 -190 523 -234 192 hintmask 11101010
            177 399 rmoveto
            -75 -36 -48 -59 -14 -83 rrcurveto
            hintmask 11110000
            -153 -27 112 -81 148 hhcurveto
            hintmask 11101010
            149 140 81 153 28 hvcurveto
            14 82 -27 60 -62 36 58 29 46 51 13 74 rrcurveto
            hintmask 11100100
            98 17 -63 104 -177 hhcurveto
            hintmask 11101010
            -177 -99 -104 -98 -18 hvcurveto
            -13 -74 27 -50 48 -30 rrcurveto
            204 196 rmoveto
            38 23 -27 -47 -8 hvcurveto
            -47 -9 -33 -25 -37 hhcurveto
            -37 -24 25 47 8 hvcurveto
            47 8 32 27 39 hhcurveto
            -50 -280 rmoveto
            51 28 -33 -51 -9 hvcurveto
            -47 -8 -38 -36 -53 hhcurveto
            -54 -24 36 47 7 hvcurveto
            52 10 39 32 51 hhcurveto
            endchar
          </CharString>
          <CharString index="85">
            -69 callsubr
            219 -210 return
          </CharString>
          <CharString index="86">
            10 callgsubr
            -53 149 callgsubr
            return
          </CharString>
          <CharString index="87">
            hlineto
            -27 -150 rlineto
            308 15 callsubr
            return
          </CharString>
          <CharString index="88">
            830 -489 143.5 -143.5 489 return
          </CharString>
          <CharString index="89">
            rmoveto
            -78 -13 48 -48 70 hhcurveto
            70 65 48 78 13 hvcurveto
            79 15 -49 48 -70 hhcurveto
            -70 -65 -48 -79 -14 hvcurveto
            174 1 rmoveto
            -29 -5 -24 -19 -27 hhcurveto
            -26 -18 19 29 5 hvcurveto
            29 6 23 19 27 hhcurveto
            27 17 -19 -29 -5 hvcurveto
            return
          </CharString>
          <CharString index="90">
            -24 callsubr
            rlineto
            return
          </CharString>
          <CharString index="91">
            rmoveto
            98 hlineto
            hintmask 11000110
            175 callsubr
            hintmask 11001010
            -7 callsubr
            hintmask 11010010
            175 callgsubr
            hintmask 11000110
            282 callsubr
            hintmask 11100010
            96 callsubr
          </CharString>
          <CharString index="92">
            rmoveto
            232 -98 24 133 -230 113 rlineto
            return
          </CharString>
          <CharString index="93">
            -133 -23 92 -98 134 hhcurveto
            return
          </CharString>
          <CharString index="94">
            17 30 11 33 7 36 return
          </CharString>
          <CharString index="95">
            rlineto
            -196 hlineto
            return
          </CharString>
          <CharString index="96">
            179 24 rmoveto
            -185 -291 rlineto
            213 hlineto
            501 828 rlineto
            -215 hlineto
            -170 -318 -61 318 rlineto
            -218 hlineto
            return
          </CharString>
          <CharString index="97">
            -17 callsubr
            51 9 33 44 51 hhcurveto
            45 18 -31 -36 -2 hvcurveto
            -14 -81 rlineto
            return
          </CharString>
          <CharString index="98">
            119 -90 74 -147 -157 -111 -92 -123 -40 vhcurveto
            197 hlineto
            return
          </CharString>
          <CharString index="99">
            249 347 callsubr
            -147 156 hstemhm
            30 185 176 186 return
          </CharString>
          <CharString index="100">
            40 28 -45 62 hhcurveto
            76 62 45 116 40 hvcurveto
            -99 hlineto
            return
          </CharString>
          <CharString index="101">
            -125 -108 -179 -32 hvcurveto
            404 hmoveto
            return
          </CharString>
          <CharString index="102">
            103 -1 callsubr
            return
          </CharString>
          <CharString index="103">
            rlineto
            177 -22 callgsubr
            return
          </CharString>
          <CharString index="104">
            -133 8 callgsubr
            return
          </CharString>
          <CharString index="105">
            19 callsubr
            101 callsubr
            return
          </CharString>
          <CharString index="106">
            590 50 callgsubr
            return
          </CharString>
          <CharString index="107">
            rmoveto
            -89 callgsubr
            320 hlineto
            return
          </CharString>
          <CharString index="108">
            rmoveto
            -211 -37 115 -148 217 hhcurveto
            184 129 114 103 60 hvcurveto
            34 190 rlineto
            -366 hlineto
            -25 -141 450 callgsubr
            -61 -40 -56 -32 -68 hhcurveto
            -116 -50 65 121 21 hvcurveto
            return
          </CharString>
          <CharString index="109">
            -45 -6 162 -162 246 56 159 58 234 -163 163 hstemhm
            28 518 -190 190 hintmask 01110010
            88 513 rmoveto
            192 hlineto
            hintmask 10101010
            34 7 19 37 44 hhcurveto
            33 19 -20 -42 -7 hvcurveto
            -11 -62 -54 -6 -38 1 rrcurveto
            -33 hlineto
            -29 -159 rlineto
            34 hlineto
            75 26 -24 -50 -9 hvcurveto
            -39 -6 -30 -27 -38 hhcurveto
            hintmask 01110100
            -52 -17 32 52 10 hvcurveto
            -191 hlineto
            -174 -27 99 -72 158 hhcurveto
            hintmask 01110010
            153 106 87 126 22 hvcurveto
            16 94 -40 52 -66 26 rrcurveto
            4 vlineto
            49 15 71 48 17 100 rrcurveto
            112 20 -69 89 -158 hhcurveto
            -156 -107 -83 -151 -32 hvcurveto
            endchar
          </CharString>
          <CharString index="110">
            rmoveto
            -70 -399 -191 399 rlineto
            -196 hlineto
            99 callgsubr
            70 394 190 -394 450 callgsubr
            293 callgsubr
            return
          </CharString>
          <CharString index="111">
            168 callsubr
            366 callgsubr
            hintmask 10110100
            23 281 93 callsubr
            hintmask 01101100
            38 callsubr
            hintmask 01110100
            -14 -78 rlineto
            50 -19 -51 35 -79 hhcurveto
            hintmask 10110100
            -3 callsubr
            return
          </CharString>
          <CharString index="112">
            -76 callgsubr
            7 return
          </CharString>
          <CharString index="113">
            hhcurveto
            76 63 181 callgsubr
            return
          </CharString>
          <CharString index="114">
            590 rmoveto
            -46 callgsubr
            return
          </CharString>
          <CharString index="115">
            hlineto
            -42 callgsubr
            return
          </CharString>
          <CharString index="116">
            rmoveto
            27 callsubr
            -36 -207 rlineto
            -47 -12 -32 -37 -52 hhcurveto
            return
          </CharString>
          <CharString index="117">
            -125 -21 65 -63 102 hhcurveto
            103 88 63 125 21 hvcurveto
            return
          </CharString>
          <CharString index="118">
            26 144 rlineto
            -20 hlineto
            -47 -11 29 41 7 hvcurveto
            9 53 rlineto
            return
          </CharString>
          <CharString index="119">
            196 hlineto
            99 561 -12 callsubr
            return
          </CharString>
          <CharString index="120">
            9 1 1 14 hvcurveto
            return
          </CharString>
          <CharString index="121">
            -109 -83 -62 541 callsubr
            -17 -96 51 -57 58 -20 -1 -4 rcurveline
            -52 -12 -69 -37 -15 -87 rrcurveto
            -129 return
          </CharString>
          <CharString index="122">
            hlineto
            -80 callsubr
            return
          </CharString>
          <CharString index="123">
            -155 -29 75 -100 136 hhcurveto
            58 52 21 38 40 hvcurveto
            return
          </CharString>
          <CharString index="124">
            333 callgsubr
            -9 hlineto
            -7 -22 -5 -21 -4 -22 return
          </CharString>
          <CharString index="125">
            30 callgsubr
            -41 -242 -45 callgsubr
            return
          </CharString>
          <CharString index="126">
            70 callgsubr
            111 hlineto
            return
          </CharString>
          <CharString index="127">
            0 0 168 -168 225 64 442 -395 155 67 173 hstemhm
            75 535 hintmask 01001100
            172 731 rmoveto
            hintmask 01100100
            -78 -442 rlineto
            190 hlineto
            hintmask 10011100
            25 9 25 22 38 hhcurveto
            47 22 -27 -53 -9 hvcurveto
            -51 -9 -28 -37 -50 hhcurveto
            hintmask 01011100
            -47 -14 30 27 2 hvcurveto
            -192 hlineto
            -131 -21 80 -94 170 hhcurveto
            160 110 96 157 28 hvcurveto
            122 22 -44 116 -151 hhcurveto
            -54 -48 -18 -26 -31 hvcurveto
            20 111 rlineto
            301 hlineto
            30 173 rlineto
            endchar
          </CharString>
          <CharString index="128">
            634 callgsubr
            366 callsubr
            122 hlineto
            -30 -27 -20 -35 -7 -41 rrcurveto
            return
          </CharString>
          <CharString index="129">
            -47 callsubr
            39 319 callsubr
            -47 rlineto
            -42 -8 -23 -30 -43 hhcurveto
            return
          </CharString>
          <CharString index="130">
            hlineto
            -61 -350 rlineto
            -145 hlineto
            -12 10 -15 9 -18 5 1 4 rcurveline
            67 24 46 52 12 71 rrcurveto
            return
          </CharString>
          <CharString index="131">
            13 71 29 callsubr
            return
          </CharString>
          <CharString index="132">
            83 0 172 102 159 102 170 hstem
            522 202 vstem
            412 705 rmoveto
            -279 hlineto
            -48 -272 rlineto
            -56 hlineto
            -28 -159 rlineto
            56 hlineto
            -49 -274 rlineto
            279 hlineto
            226 168 149 204 37 hvcurveto
            207 36 -117 145 -225 hhcurveto
            -177 -533 rmoveto
            18 102 rlineto
            142 hlineto
            28 159 rlineto
            -141 hlineto
            18 102 rlineto
            67 hlineto
            113 59 -65 -117 -21 hvcurveto
            -116 -20 -82 -65 -114 hhcurveto
            endchar
          </CharString>
          <CharString index="133">
            463 callsubr
            33 35 51 hhcurveto
            56 11 -48 -49 -9 hvcurveto
            return
          </CharString>
          <CharString index="134">
            -62 -21 34 callgsubr
            return
          </CharString>
          <CharString index="135">
            -23 -134 rlineto
            180 201 callsubr
            -718 -63 callgsubr
            143 401 callgsubr
            -69 -12 -28 -15 -71 hhcurveto
            return
          </CharString>
          <CharString index="136">
            76 callsubr
            -95 hhcurveto
            return
          </CharString>
          <CharString index="137">
            115 callgsubr
            -321 rlineto
            return
          </CharString>
          <CharString index="138">
            308 -83 callgsubr
            return
          </CharString>
          <CharString index="139">
            114 103 87 callgsubr
            395 callsubr
            return
          </CharString>
          <CharString index="140">
            -13 callsubr
            rrcurveto
            416 59 -101 callgsubr
            return
          </CharString>
          <CharString index="141">
            -65 -16 24 40 7 hvcurveto
            -94 hlineto
            -3 -18 rlineto
            return
          </CharString>
          <CharString index="142">
            -133 -109 -74 -116 -21 hvcurveto
            -16 -86 40 -55 51 -27 -77 -36 -73 -50 -17 -98 rrcurveto
            return
          </CharString>
          <CharString index="143">
            -67 callgsubr
            hintmask 0001000010000000
            -54 callsubr
            return
          </CharString>
          <CharString index="144">
            -39 -21 20 35 4 583 callsubr
            -45 -256 586 callgsubr
            return
          </CharString>
          <CharString index="145">
            -50 -30 21 36 -2 hvcurveto
            -193 hlineto
            -139 -10 92 -88 175 hhcurveto
            202 105 132 150 26 hvcurveto
            98 555 -12 callsubr
            return
          </CharString>
          <CharString index="146">
            -26 -12 -30 -21 -36 hhcurveto
            -39 -30 27 57 10 hvcurveto
            53 9 40 29 38 hhcurveto
            return
          </CharString>
          <CharString index="147">
            rmoveto
            49 9 -32 39 -49 hhcurveto
            -48 -45 -39 -49 -8 hvcurveto
            return
          </CharString>
          <CharString index="148">
            -82 callgsubr
            107 callgsubr
            return
          </CharString>
          <CharString index="149">
            hlineto
            -23 -129 rlineto
            38 -22 -43 23 -65 hhcurveto
            return
          </CharString>
          <CharString index="150">
            rmoveto
            -87 -38 49 62 10 hvcurveto
            116 15 51 76 135 callgsubr
            128 hlineto
            -38 -217 rlineto
            1 vlineto
            -86 -15 -62 -66 -94 hhcurveto
            return
          </CharString>
          <CharString index="151">
            rmoveto
            -140 -227 rlineto
            119 hlineto
            173 227 rlineto
            -381 hmoveto
            -117 -227 rlineto
            119 hlineto
            150 227 rlineto
            endchar
          </CharString>
          <CharString index="152">
            132 40 -63 83 -133 hhcurveto
            return
          </CharString>
          <CharString index="153">
            2 4 185 349 185 hstem
            42 194 213 195 vstem
            52 364 rmoveto
            -207 -36 54 -153 210 hhcurveto
            209 109 153 207 36 hvcurveto
            205 36 -54 154 -210 hhcurveto
            -210 -107 -154 -205 -37 hvcurveto
            388 hmoveto
            -92 -17 -24 -83 -87 hhcurveto
            -87 4 83 92 16 hvcurveto
            91 16 26 83 87 hhcurveto
            86 -4 -83 -91 -16 hvcurveto
            endchar
          </CharString>
          <CharString index="154">
            -2 -12 -1 -15 1 -10 540 callgsubr
            return
          </CharString>
          <CharString index="155">
            86 callsubr
            -86 -15 return
          </CharString>
          <CharString index="156">
            6 38 192 callgsubr
            return
          </CharString>
          <CharString index="157">
            133 -133 222 hstemhm
            365 166 hintmask 0100101010100000
            109 callsubr
            hintmask 0010001010100000
            80 callsubr
            hintmask 0001001010100000
            230 callgsubr
            hintmask 1000001010100000
            -43 -242 85 callsubr
            return
          </CharString>
          <CharString index="158">
            79 135 callgsubr
            return
          </CharString>
          <CharString index="159">
            hintmask 10110000
            202 hmoveto
            45 253 rlineto
            hintmask 11010000
            80 17 49 24 78 hhcurveto
            55 hlineto
            hintmask 10110000
            36 209 rlineto
            -75 -71 -44 -63 -53 hvcurveto
            hintmask 11010000
            18 102 -12 callsubr
            -100 -561 rlineto
            return
          </CharString>
          <CharString index="160">
            513 rmoveto
            -60 -49 -23 -36 -35 hvcurveto
            24 136 rlineto
            295 hlineto
            -7 -38 -7 -40 -13 -35 -27 -24 rlinecurve
            37 -23 -40 23 -58 hhcurveto
            420 callgsubr
            return
          </CharString>
          <CharString index="161">
            14 80 -12 callsubr
            -100 -561 450 callgsubr
            54 306 rlineto
            60 11 42 38 57 hhcurveto
            return
          </CharString>
          <CharString index="162">
            -144 -26 94 -100 150 hhcurveto
            135 104 78 117 27 584 callgsubr
            return
          </CharString>
          <CharString index="163">
            112 20 -69 72 -131 hhcurveto
            -134 -101 -84 -121 -21 hvcurveto
            165 hlineto
            return
          </CharString>
          <CharString index="164">
            5 hmoveto
            197 hlineto
            293 callgsubr
            -196 hlineto
            return
          </CharString>
          <CharString index="165">
            299 rmoveto
            653 callsubr
            return
          </CharString>
          <CharString index="166">
            156 87 88 147 18 hvcurveto
            return
          </CharString>
          <CharString index="167">
            -101 callgsubr
            -688 -63 callgsubr
            363 331 callsubr
            -20 -117 49 -89 90 -48 -148 -154 rcurveline
            112 callsubr
            -81 133 98 29 61 65 17 91 rlinecurve
            459 callsubr
            return
          </CharString>
          <CharString index="168">
            hlineto
            -63 callsubr
            return
          </CharString>
          <CharString index="169">
            29 42 hhcurveto
            41 23 211 callgsubr
            return
          </CharString>
          <CharString index="170">
            -13 -79 -63 -15 -45 -36 -29 -46 rlinecurve
            return
          </CharString>
          <CharString index="171">
            194 callgsubr
            -27 callgsubr
            return
          </CharString>
          <CharString index="172">
            7 callgsubr
            382 283 callgsubr
            return
          </CharString>
          <CharString index="173">
            36 0 290 -290 720 -600 170 hstemhm
            22 629 hintmask 10010000
            325 hmoveto
            197 hlineto
            hintmask 00110000
            22 120 rlineto
            77 hlineto
            hintmask 10010000
            30 170 rlineto
            -77 hlineto
            hintmask 01010000
            75 430 rlineto
            -215 hlineto
            -384 -438 rlineto
            hintmask 00110000
            -28 -162 rlineto
            324 hlineto
            hintmask 10010000
            -93 170 rmoveto
            175 209 -37 -209 rlineto
            endchar
          </CharString>
          <CharString index="174">
            415 callsubr
            -23 92 -98 134 hhcurveto
            return
          </CharString>
          <CharString index="175">
            -177 -30 127 -114 189 hhcurveto
            171 106 77 124 23 hvcurveto
            return
          </CharString>
          <CharString index="176">
            -39 callgsubr
            -26 379 callsubr
            50 36 66 hhcurveto
            return
          </CharString>
          <CharString index="177">
            rmoveto
            hintmask 01111000
            -53 -300 rlineto
            -146 hlineto
            641 294 rmoveto
            27 155 rlineto
            -577 hlineto
            hintmask 10111000
            -474 -705 rlineto
            214 hlineto
            hintmask 01111000
            71 108 rlineto
            217 hlineto
            hintmask 10111000
            -19 -108 rlineto
            444 hlineto
            452 callsubr
            -247 hlineto
            24 131 rlineto
            217 hlineto
            249 callgsubr
            -217 hlineto
            20 115 rlineto
            endchar
          </CharString>
          <CharString index="178">
            -31 40 54 9 hvcurveto
            return
          </CharString>
          <CharString index="179">
            156 62 -69 callgsubr
            -97 callsubr
            hstemhm
            25 -19 callsubr
            return
          </CharString>
          <CharString index="180">
            240 -137 137 140 136 74 -11 callgsubr
            39 104 callsubr
            return
          </CharString>
          <CharString index="181">
            136 143 134 77 312 callsubr
            146 161 return
          </CharString>
          <CharString index="182">
            509 callsubr
            153 hstemhm
            27 196 -104 233 callgsubr
            449 -158 158 return
          </CharString>
          <CharString index="183">
            48 callsubr
            -62 -66 return
          </CharString>
          <CharString index="184">
            168 -138 rcurveline
            79 callgsubr
            return
          </CharString>
          <CharString index="185">
            128 -128 147 return
          </CharString>
          <CharString index="186">
            87 -43 callsubr
            return
          </CharString>
          <CharString index="187">
            -38 -18 28 32 6 hvcurveto
            -168 hlineto
            -128 -23 80 -86 145 hhcurveto
            return
          </CharString>
          <CharString index="188">
            -1 11 1 9 2 10 rrcurveto
            30 6 19 22 27 hhcurveto
            return
          </CharString>
          <CharString index="189">
            -200 -195 429 callgsubr
            219 235 rlineto
            return
          </CharString>
          <CharString index="190">
            190 callsubr
            614 callgsubr
            return
          </CharString>
          <CharString index="191">
            18 103 rlineto
            125 callgsubr
            return
          </CharString>
          <CharString index="192">
            rlineto
            180 -81 callsubr
            return
          </CharString>
          <CharString index="193">
            rcurveline
            129 205 callgsubr
            return
          </CharString>
          <CharString index="194">
            86 hlineto
            30 167 rlineto
            -57 hlineto
            -34 -11 13 30 5 hvcurveto
            34 188 rlineto
            101 343 callsubr
            -101 hlineto
            return
          </CharString>
          <CharString index="195">
            31 21 579 callgsubr
            444 203 hintmask 10110000
            388 hmoveto
            148 callsubr
            return
          </CharString>
          <CharString index="196">
            235 159 callsubr
            24 128 callsubr
            return
          </CharString>
          <CharString index="197">
            6 36 29 42 hhcurveto
            40 23 -30 -39 -6 hvcurveto
            -40 -8 398 callsubr
            return
          </CharString>
          <CharString index="198">
            -140 146 -77 152 83 590 callsubr
            176 850 187 hintmask 0001101100000000
            327 286 49 callgsubr
            171 -125 rlineto
            -34 -18 -31 -26 -49 hhcurveto
            489 304 rmoveto
            -23 -129 rlineto
            38 -22 -43 23 -65 hhcurveto
            -76 return
          </CharString>
          <CharString index="199">
            877 -66 callsubr
            -854 2 callgsubr
            return
          </CharString>
          <CharString index="200">
            618 callgsubr
            609 callsubr
            -72 rlineto
            -87 -15 -49 -25 -55 hhcurveto
            return
          </CharString>
          <CharString index="201">
            vstem
            -6 callgsubr
            -88 hlineto
            return
          </CharString>
          <CharString index="202">
            -9 -55 rlineto
            -13 hlineto
            -165 -139 -90 -168 -31 hvcurveto
            return
          </CharString>
          <CharString index="203">
            -76 -62 -45 -117 -40 hvcurveto
            endchar
          </CharString>
          <CharString index="204">
            41 230 rlineto
            114 117 callsubr
            181 -92 callsubr
          </CharString>
          <CharString index="205">
            hstemhm
            24 167 -167 447 -447 450 -142 142 return
          </CharString>
          <CharString index="206">
            -1 callgsubr
            hintmask 10001010
            -74 callsubr
            return
          </CharString>
          <CharString index="207">
            197 hlineto
            131 740 315 callgsubr
            return
          </CharString>
          <CharString index="208">
            -409 -389 -47 callsubr
            return
          </CharString>
          <CharString index="209">
            556 callgsubr
            116 229 rlineto
            endchar
          </CharString>
          <CharString index="210">
            rmoveto
            74 39 -55 -67 -11 669 callsubr
            30 callgsubr
            return
          </CharString>
          <CharString index="211">
            226 callsubr
            188.5 158 return
          </CharString>
          <CharString index="212">
            139 callsubr
            86 -109 return
          </CharString>
          <CharString index="213">
            262 callsubr
            10 return
          </CharString>
          <CharString index="214">
            -5 -27 rlineto
            149 hlineto
            return
          </CharString>
          <CharString index="215">
            -11 -60 rlineto
            -59 303 callsubr
            return
          </CharString>
          <CharString index="216">
            236 484 rmoveto
            68 callgsubr
            return
          </CharString>
          <CharString index="217">
            34 16 33 16 30 hhcurveto
            48 19 -41 -48 615 callsubr
            -33 -40 -48 hhcurveto
            return
          </CharString>
          <CharString index="218">
            -66 callgsubr
            845 425 callsubr
            return
          </CharString>
          <CharString index="219">
            191 hlineto
            98 110 58 -110 473 callgsubr
            return
          </CharString>
          <CharString index="220">
            -159 -26 108 -104 171 hhcurveto
            return
          </CharString>
          <CharString index="221">
            -107 callgsubr
            308 hlineto
            return
          </CharString>
          <CharString index="222">
            -24 -134 rlineto
            68 hlineto
            -2 -14 rlineto
            -48 -9 649 callsubr
            -13 -72 rlineto
            104 60 70 94 535 callsubr
            -8 44 rrcurveto
            endchar
          </CharString>
          <CharString index="223">
            -45 -8 -32 -27 -43 hhcurveto
            -42 -29 28 61 10 hvcurveto
            58 329 rlineto
            157 hlineto
            -11 -63 -8 -44 -26 -21 -47 8 rlinecurve
            -29 -161 rlineto
            return
          </CharString>
          <CharString index="224">
            hlineto
            -104 -590 rlineto
            return
          </CharString>
          <CharString index="225">
            256 callsubr
            170 -126 rlineto
            -34 -17 -34 -25 -46 hhcurveto
            return
          </CharString>
          <CharString index="226">
            -83 callgsubr
            353 282 -91 callsubr
            -895 -65 callgsubr
            return
          </CharString>
          <CharString index="227">
            -4 hlineto
            82 -37 -69 26 -73 hhcurveto
            -126 -117 -90 -145 -26 hvcurveto
            return
          </CharString>
          <CharString index="228">
            -371 33 callgsubr
            return
          </CharString>
          <CharString index="229" raw="1">
            fb2af705 1d0b  
          </CharString>
          <CharString index="230">
            203 -203 476 -417 144 return
          </CharString>
          <CharString index="231">
            316 -91 callsubr
            return
          </CharString>
          <CharString index="232">
            20 111 -36 75 -61 39 return
          </CharString>
          <CharString index="233">
            -50 -106 hhcurveto
            -69 hlineto
            return
          </CharString>
          <CharString index="234">
            -143 -6 95 -90 149 hhcurveto
            79 62 181 callgsubr
            return
          </CharString>
          <CharString index="235">
            172 -95 179 86 169 return
          </CharString>
          <CharString index="236">
            512 11 callgsubr
            return
          </CharString>
          <CharString index="237">
            395 callgsubr
            147 26 -66 92 -129 hhcurveto
            -80 -65 -37 -48 -41 hvcurveto
            return
          </CharString>
          <CharString index="238">
            13 71 149 callsubr
            return
          </CharString>
          <CharString index="239">
            -82 callgsubr
            -46 callgsubr
            return
          </CharString>
          <CharString index="240">
            -14 -78 rlineto
            50 -19 -50 35 -80 hhcurveto
            return
          </CharString>
          <CharString index="241">
            55 39 -41 -75 -13 hvcurveto
            return
          </CharString>
          <CharString index="242">
            454 callgsubr
            hintmask 10000001
            475 callsubr
            hintmask 10000001
            282 callsubr
            hintmask 01110001
            96 callsubr
          </CharString>
          <CharString index="243">
            568 31 callsubr
            return
          </CharString>
          <CharString index="244">
            -126 -22 76 -85 139 496 callsubr
            91 144 25 hvcurveto
            return
          </CharString>
          <CharString index="245">
            hhcurveto
            -8 -12 1 1 -5 hvcurveto
            return
          </CharString>
          <CharString index="246">
            474 callsubr
            -179 -31 return
          </CharString>
          <CharString index="247">
            154 -154 return
          </CharString>
          <CharString index="248">
            257 callgsubr
            18 101 -34 72 -71 29 13 68 rcurveline
            return
          </CharString>
          <CharString index="249">
            236 -236 313 return
          </CharString>
          <CharString index="250">
            -11 callgsubr
            27 180 return
          </CharString>
          <CharString index="251">
            hlineto
            hintmask 00101100
            -28 -158 -84 callgsubr
            hintmask 01001100
            200 callgsubr
            hintmask 00111100
            -54 callsubr
            return
          </CharString>
          <CharString index="252">
            231 callgsubr
            55 hlineto
            85 19 -17 -104 50 hvcurveto
            -95 -68 callgsubr
            return
          </CharString>
          <CharString index="253">
            202 callgsubr
            279 rlineto
            -1 vlineto
            return
          </CharString>
          <CharString index="254">
            49 callgsubr
            169 -125 return
          </CharString>
          <CharString index="255">
            130 callsubr
            hintmask 11010000
            54 callsubr
            470 callsubr
            return
          </CharString>
          <CharString index="256">
            rcurveline
            128 205 callgsubr
            -86 -15 return
          </CharString>
          <CharString index="257">
            104 41 callsubr
            return
          </CharString>
          <CharString index="258">
            388 callsubr
            -64 callgsubr
            141 -71 callsubr
            return
          </CharString>
          <CharString index="259">
            hhcurveto
            42 hlineto
            -39 callgsubr
            -26 40 57 10 hvcurveto
            61 10 45 35 61 hhcurveto
            57 21 -27 -36 11 hvcurveto
            return
          </CharString>
          <CharString index="260">
            218 callgsubr
            692 179 return
          </CharString>
          <CharString index="261">
            -69 callsubr
            371 27 callgsubr
            return
          </CharString>
          <CharString index="262">
            530 callgsubr
            5 24 9 25 hhcurveto
            188 hlineto
            return
          </CharString>
          <CharString index="263">
            -39 -7 -18 -27 -33 hhcurveto
            -35 -10 26 31 6 hvcurveto
            14 81 rlineto
            return
          </CharString>
          <CharString index="264">
            rmoveto
            9 55 rlineto
            125 -43 callsubr
            return
          </CharString>
          <CharString index="265">
            155 -155 260 callgsubr
            return
          </CharString>
          <CharString index="266">
            -159 509 callsubr
            153 hstemhm
            return
          </CharString>
          <CharString index="267">
            244 82 508 callsubr
            return
          </CharString>
          <CharString index="268">
            222 -97 callsubr
            return
          </CharString>
          <CharString index="269">
            514 -147 rmoveto
            -5 callsubr
            -1390 -107 callgsubr
            622 hlineto
            -10 -62 -9 -55 -24 -35 -41 -19 rlinecurve
            47 -37 -66 27 -102 hhcurveto
            -155 -147 -80 -169 -31 hvcurveto
            return
          </CharString>
          <CharString index="270">
            320 252 callgsubr
            -1012 -4 callgsubr
            rlineto
            return
          </CharString>
          <CharString index="271">
            -132 0 719 669 callgsubr
            hstemhm
            1 582 hintmask 01100000
            101 719 rmoveto
            -29 -167 rlineto
            283 hlineto
            hintmask 10100000
            -354 -552 rlineto
            203 hlineto
            354 575 rlineto
            hintmask 01100000
            25 144 rlineto
            endchar
          </CharString>
          <CharString index="272">
            488 callgsubr
            84 84 129 21 hvcurveto
            1 4 1 9 1 11 rrcurveto
            -173 hlineto
            return
          </CharString>
          <CharString index="273">
            -125 -705 rlineto
            return
          </CharString>
          <CharString index="274">
            -10 -25 -5 -28 -1 -29 rrcurveto
            162 hlineto
            40 callgsubr
            -362 hlineto
            -132 -126 -57 -148 -26 hvcurveto
            -142 -26 101 -91 121 hhcurveto
            return
          </CharString>
          <CharString index="275">
            25 -276 170 -170 227 42 171 533 callgsubr
            return
          </CharString>
          <CharString index="276">
            424 callgsubr
            -47 21 -61 hhcurveto
            -130 -91 -74 -117 -32 hvcurveto
            return
          </CharString>
          <CharString index="277">
            40 58 hhcurveto
            58 28 -40 -50 -7 hvcurveto
            -1 -5 rlineto
            -48 -9 -42 -44 -60 hhcurveto
            return
          </CharString>
          <CharString index="278">
            -131 -113 -74 -129 -30 hvcurveto
            170 hlineto
            return
          </CharString>
          <CharString index="279">
            -2 10 10 -1 10 hhcurveto
            49 38 15 23 28 hvcurveto
            return
          </CharString>
          <CharString index="280">
            -30 -5 -29 -18 -39 hhcurveto
            return
          </CharString>
          <CharString index="281">
            -11 callgsubr
            27 179 return
          </CharString>
          <CharString index="282">
            32 11 17 14 24 hhcurveto
            return
          </CharString>
          <CharString index="283">
            -4 callgsubr
            -23 -112 42 -91 94 -29 rlinecurve
            -195 -199 429 callgsubr
            204 230 -35 -199 rlineto
            181 hlineto
            47 269 rlineto
            61 14 35 39 54 hhcurveto
            return
          </CharString>
          <CharString index="284">
            rmoveto
            53 9 46 40 58 hhcurveto
            60 27 -42 -51 615 callsubr
            -41 -44 -60 hhcurveto
            -59 71 callsubr
            return
          </CharString>
          <CharString index="285">
            -107 callgsubr
            85 hlineto
            -6 -38 -15 -79 32 -40 48 -15 rlinecurve
            -1 -4 -54 -15 -56 -44 -13 -76 rlinecurve
            return
          </CharString>
          <CharString index="286">
            78 callsubr
            158 174 callsubr
            return
          </CharString>
          <CharString index="287">
            182.5 return
          </CharString>
          <CharString index="288">
            222 rmoveto
            hintmask 1000011010000000
            -81 -39 47 59 5 hvcurveto
            106 22 62 78 16 91 13 71 rcurveline
            127 205 callgsubr
            hintmask 1000011100000000
            -86 -15 -61 -66 -95 hhcurveto
            477 160 callgsubr
            return
          </CharString>
          <CharString index="289">
            431 callgsubr
            -206 rlineto
            -47 -11 -33 -38 -52 hhcurveto
            435 219 rmoveto
            -59 -50 -21 -35 -35 hvcurveto
            22 128 rlineto
            572 hlineto
            return
          </CharString>
          <CharString index="290">
            -24 -22 -3 -5 -21 hvcurveto
            -893 -107 callgsubr
            229 350 callgsubr
            78 50 63 50 hvcurveto
            return
          </CharString>
          <CharString index="291">
            23 5 9 12 16 hhcurveto
            9 6 -6 -11 -2 hvcurveto
            -4 -21 -19 -21 -39 -20 -141 -72 rcurveline
            -20 -109 rlineto
            327 hlineto
            20 113 rlineto
            -172 hlineto
            54 22 98 39 44 32 9 48 rlinecurve
            return
          </CharString>
          <CharString index="292">
            18 -22 -29 10 -36 632 callgsubr
            -300 -251 -72 callsubr
            return
          </CharString>
          <CharString index="293">
            -97 -17 -71 -65 -96 hhcurveto
            -57 -32 19 38 7 hvcurveto
            39 7 38 16 52 hhcurveto
            52 241 callsubr
            return
          </CharString>
          <CharString index="294">
            rmoveto
            281 callgsubr
            -2 -14 -5 363 callgsubr
            return
          </CharString>
          <CharString index="295">
            150 96 -42 callsubr
            return
          </CharString>
          <CharString index="296">
            199 hlineto
            35 193 rlineto
            -199 hlineto
            return
          </CharString>
          <CharString index="297">
            203 callgsubr
            23 return
          </CharString>
          <CharString index="298">
            -17 -96 rlineto
            -294 hlineto
            return
          </CharString>
          <CharString index="299">
            144 -144 return
          </CharString>
          <CharString index="300">
            95 callsubr
            130 callgsubr
            return
          </CharString>
          <CharString index="301">
            -589 6 269 callsubr
            534 callgsubr
            rrcurveto
            return
          </CharString>
          <CharString index="302">
            240 -239 141 -39 137 96 511 callgsubr
            404 273 callgsubr
            433 104 callsubr
            return
          </CharString>
          <CharString index="303">
            -24 callsubr
            9 55 34 39 49 1 rlinecurve
            43 14 -28 -27 3 hvcurveto
            return
          </CharString>
          <CharString index="304">
            -7 -38 -10 -57 -22 -45 -55 -20 rlinecurve
            39 -38 -59 25 return
          </CharString>
          <CharString index="305">
            -107 callgsubr
            228 380 callgsubr
            return
          </CharString>
          <CharString index="306">
            hmoveto
            229 callgsubr
            return
          </CharString>
          <CharString index="307">
            122 -122 340 callgsubr
            return
          </CharString>
          <CharString index="308">
            hlineto
            189 callgsubr
            return
          </CharString>
          <CharString index="309">
            -19 -7 169 237 169 return
          </CharString>
          <CharString index="310">
            -105 -19 -84 -52 -147 hhcurveto
            return
          </CharString>
          <CharString index="311">
            hstemhm
            40 180 callsubr
            return
          </CharString>
          <CharString index="312">
            -635 -48 rmoveto
            -78 -30 52 66 11 hvcurveto
            3 15 97 17 77 76 22 130 rlinecurve
            15 87 rlineto
            682 19 callgsubr
            -60 -51 -20 -36 -40 hvcurveto
            return
          </CharString>
          <CharString index="313">
            407 27 rmoveto
            -78 -39 40 51 1 hvcurveto
            116 18 52 83 17 101 13 75 48 callsubr
            -63 -66 -95 hhcurveto
            478 368 -101 callgsubr
            return
          </CharString>
          <CharString index="314">
            45 -58 hhcurveto
            -57 -53 -45 610 callsubr
            -46 57 hhcurveto
            58 return
          </CharString>
          <CharString index="315">
            126 60 -11 callgsubr
            11 493 -445 182 88 175 return
          </CharString>
          <CharString index="316">
            45 56 10 hvcurveto
            return
          </CharString>
          <CharString index="317">
            47 71 12 hvcurveto
            12 return
          </CharString>
          <CharString index="318">
            377 callgsubr
            -748 -63 callgsubr
            609 396 callsubr
            47 callsubr
            -1 11 1 9 2 10 rrcurveto
            30 return
          </CharString>
          <CharString index="319">
            237 hlineto
            -208 362 319 343 rlineto
            -226 hlineto
            -273 -305 54 305 rlineto
            -196 hlineto
            99 callgsubr
            54 310 rlineto
            endchar
          </CharString>
          <CharString index="320">
            -23 -127 rcurveline
            251 callgsubr
            return
          </CharString>
          <CharString index="321">
            rmoveto
            -77 -34 35 49 -8 hvcurveto
            117 23 57 107 14 83 548 callsubr
            -90 hhcurveto
            478 160 callgsubr
            return
          </CharString>
          <CharString index="322">
            197 hlineto
            41 229 113 -229 rlineto
            239 hlineto
            -175 279 271 282 rlineto
            -235 hlineto
            -193 -219 70 398 612 callsubr
          </CharString>
          <CharString index="323">
            -54 callsubr
            91 hlineto
            return
          </CharString>
          <CharString index="324">
            145 -132 150 40 443 callsubr
            25 166 return
          </CharString>
          <CharString index="325">
            159 hmoveto
            289 callsubr
            -96 hlineto
            return
          </CharString>
          <CharString index="326">
            -145 -26 84 -111 140 336 callgsubr
            return
          </CharString>
          <CharString index="327">
            rmoveto
            -95 231 rlineto
            -179 hlineto
            91 -231 rlineto
            return
          </CharString>
          <CharString index="328">
            -56 -10 37 -45 57 hhcurveto
            -21 callgsubr
            return
          </CharString>
          <CharString index="329">
            -148 -28 79 -113 161 hhcurveto
            return
          </CharString>
          <CharString index="330">
            58 115 rlineto
            250 hlineto
            return
          </CharString>
          <CharString index="331">
            57 -7 185 527 -20 return
          </CharString>
          <CharString index="332">
            195 429 callsubr
            return
          </CharString>
          <CharString index="333">
            183.5 return
          </CharString>
          <CharString index="334">
            154 -96 151 37 123 callsubr
            -100 141 82 -11 callgsubr
            112 178 232 223 callgsubr
            return
          </CharString>
          <CharString index="335">
            247 callgsubr
            91 -230 rlineto
            return
          </CharString>
          <CharString index="336">
            231 callsubr
            146 return
          </CharString>
          <CharString index="337">
            -17 -27 -34 -51 callsubr
            return
          </CharString>
          <CharString index="338">
            161 callgsubr
            -140 return
          </CharString>
          <CharString index="339">
            130 23 -73 80 -125 hhcurveto
            return
          </CharString>
          <CharString index="340">
            rmoveto
            11 59 rlineto
            return
          </CharString>
          <CharString index="341">
            hvcurveto
            hintmask 10101000
            -180 23 rmoveto
            hintmask 10011000
            37 6 -23 30 -39 hhcurveto
            -36 -36 -30 -37 -6 hvcurveto
            hintmask 10101000
            -37 -7 25 -29 36 hhcurveto
            39 34 29 37 7 hvcurveto
            endchar
          </CharString>
          <CharString index="342">
            714 6 callgsubr
            -688 -107 callgsubr
            216 hlineto
            -6 -38 rlineto
            -77 -13 -36 -56 -113 hhcurveto
            -9 hlineto
            -7 -22 -5 -21 -4 -22 return
          </CharString>
          <CharString index="343">
            465 callgsubr
            -64 callgsubr
            140 -71 callsubr
            return
          </CharString>
          <CharString index="344">
            407 callgsubr
            -60 660 callsubr
            9 46 170 callsubr
            endchar
          </CharString>
          <CharString index="345">
            563 callsubr
            644 callgsubr
            return
          </CharString>
          <CharString index="346">
            -11 488 callsubr
            68 -11 callgsubr
            62 184 495 return
          </CharString>
          <CharString index="347">
            440 callsubr
            445 675 callgsubr
            75 179 return
          </CharString>
          <CharString index="348">
            hlineto
            315 callsubr
            return
          </CharString>
          <CharString index="349">
            184 60 rmoveto
            27 13 -19 -41 -8 hvcurveto
            -40 -7 -20 -19 -27 hhcurveto
            -26 -11 19 40 7 hvcurveto
            41 8 18 19 26 hhcurveto
            -160 -603 rmoveto
            188 hlineto
            return
          </CharString>
          <CharString index="350">
            -20 -116 rlineto
            -46 205 rmoveto
            -50 -1 -31 34 9 49 rrcurveto
            49 8 42 455 callsubr
            return
          </CharString>
          <CharString index="351">
            -26 -152 rlineto
            116 hlineto
            -21 -27 -16 -35 -8 -44 rrcurveto
            -142 -26 107 -89 142 hhcurveto
            41 hlineto
            24 141 rlineto
            -16 hlineto
            -72 -28 40 56 10 hvcurveto
            return
          </CharString>
          <CharString index="352">
            vstem
            -6 callgsubr
            -87 hlineto
            return
          </CharString>
          <CharString index="353">
            -190 -34 94 -105 180 hhcurveto
            104 84 48 66 58 hvcurveto
            return
          </CharString>
          <CharString index="354">
            -28 -16 11 22 4 hvcurveto
            return
          </CharString>
          <CharString index="355">
            587 callgsubr
            27 hhcurveto
            return
          </CharString>
          <CharString index="356">
            -107 callgsubr
            168 hlineto
            -34 -190 -22 -112 42 -91 93 -29 rlinecurve
            hintmask 0100000010000000
            -194 -199 rlineto
            193 hlineto
            205 230 rlineto
            return
          </CharString>
          <CharString index="357">
            -31 callsubr
            53 9 46 40 58 hhcurveto
            45 30 -27 -35 5 hvcurveto
            -1 -8 0 -8 -9 -1 -1 -1 -1 vvcurveto
            -57 -10 -43 -40 -58 hhcurveto
            return
          </CharString>
          <CharString index="358">
            -174 -30 109 -69 139 hhcurveto
            46 519 callgsubr
            49 36 74 hhcurveto
            74 18 -38 -34 3 hvcurveto
            return
          </CharString>
          <CharString index="359">
            338 -20 rmoveto
            254 216 32 184 -494 -400 rlineto
            531 610 -101 callgsubr
            -636 -107 callgsubr
            307 hlineto
            return
          </CharString>
          <CharString index="360">
            -69 callsubr
            371 388 callgsubr
            return
          </CharString>
          <CharString index="361">
            111 175 -49 175 rlineto
            -180 hlineto
            52 -175 -114 -175 rlineto
            return
          </CharString>
          <CharString index="362">
            62 callsubr
            -40 -6 return
          </CharString>
          <CharString index="363">
            -304 49 callgsubr
            return
          </CharString>
          <CharString index="364">
            136 -136 360 -94 callsubr
            return
          </CharString>
          <CharString index="365">
            -107 callgsubr
            304 hlineto
            -7 -39 rlineto
            return
          </CharString>
          <CharString index="366">
            233 callsubr
            137 hlineto
            return
          </CharString>
          <CharString index="367">
            40 344 callgsubr
            41 return
          </CharString>
          <CharString index="368">
            hvcurveto
            33 181 rlineto
            return
          </CharString>
          <CharString index="369">
            426 callsubr
            55 return
          </CharString>
          <CharString index="370">
            325 callgsubr
            -17 -105 41 -80 78 -43 rrcurveto
            return
          </CharString>
          <CharString index="371">
            -59 -332 rlineto
            173 201 callsubr
            -260 hlineto
            -49 -278 rlineto
            -145 391 callgsubr
            return
          </CharString>
          <CharString index="372">
            -24 -136 rlineto
            -69 hlineto
            509 callgsubr
            69 hlineto
            endchar
          </CharString>
          <CharString index="373">
            281 callsubr
            6 469 callgsubr
            -404 154 -121 149 -149 490 callsubr
            return
          </CharString>
          <CharString index="374">
            643 -51 rmoveto
            -38 -18 27 52 9 hvcurveto
            1 8 rlineto
            91 16 -44 96 -128 hhcurveto
            -62 -52 -24 -39 -36 hvcurveto
            23 131 rlineto
            715 hlineto
            return
          </CharString>
          <CharString index="375">
            -11 -60 rlineto
            -58 303 callsubr
            return
          </CharString>
          <CharString index="376">
            -58 callgsubr
            89 hlineto
            return
          </CharString>
          <CharString index="377">
            632 callsubr
            89 65 callsubr
            return
          </CharString>
          <CharString index="378">
            -69 callsubr
            237 -237 441 158 323 callgsubr
            182 return
          </CharString>
          <CharString index="379">
            153 68 -11 callgsubr
            62 184 495 190 return
          </CharString>
          <CharString index="380">
            -34 -192 rlineto
            181 hlineto
            46 265 rlineto
            63 14 return
          </CharString>
          <CharString index="381">
            195 -31 callsubr
            return
          </CharString>
          <CharString index="382">
            -156 -30 86 -119 161 hhcurveto
            return
          </CharString>
          <CharString index="383">
            445 callsubr
            rrcurveto
            return
          </CharString>
          <CharString index="384">
            468 342 callsubr
            return
          </CharString>
          <CharString index="385">
            40 22 -24 -27 hvcurveto
            172 hlineto
            return
          </CharString>
          <CharString index="386">
            -1 -5 585 callsubr
            return
          </CharString>
          <CharString index="387">
            -29 -41 hhcurveto
            -42 -25 28 return
          </CharString>
          <CharString index="388">
            142 283 callgsubr
            return
          </CharString>
          <CharString index="389">
            -40 -27 45 -62 hhcurveto
            return
          </CharString>
          <CharString index="390">
            151 -151 return
          </CharString>
          <CharString index="391">
            288 callgsubr
            50 hhcurveto
            46 18 -33 -40 -4 hvcurveto
            -4 -12 448 callgsubr
            return
          </CharString>
          <CharString index="392">
            554 callsubr
            648 callgsubr
            -269 258 callgsubr
            return
          </CharString>
          <CharString index="393">
            -362 -706 rmoveto
            -61 -1 -37 38 10 56 3 15 5 14 9 12 141 -107 rcurveline
            -17 -20 -24 -10 -26 hhcurveto
            33 187 rmoveto
            return
          </CharString>
          <CharString index="394">
            -135 rlineto
            67 hlineto
            -2 -13 rlineto
            -49 -9 -22 -22 -35 hhcurveto
            -13 -71 rlineto
            return
          </CharString>
          <CharString index="395">
            hhcurveto
            -163 -99 -93 -134 -23 hvcurveto
            -140 -25 94 -107 155 hhcurveto
            return
          </CharString>
          <CharString index="396">
            103 41 callsubr
            return
          </CharString>
          <CharString index="397">
            193 -193 591 -540 142 return
          </CharString>
          <CharString index="398">
            18 202 195 202 return
          </CharString>
          <CharString index="399">
            336 -94 callsubr
            return
          </CharString>
          <CharString index="400">
            rmoveto
            -82 -41 46 56 9 587 callsubr
            50 79 17 95 13 76 rcurveline
            129 hlineto
            -39 -224 rlineto
            -83 -17 -62 -62 -92 hhcurveto
            return
          </CharString>
          <CharString index="401">
            366 callsubr
            180 hlineto
            381 callgsubr
            return
          </CharString>
          <CharString index="402">
            rmoveto
            -51 -1 -27 34 8 44 8 44 35 32 49 5 39 4 33 14 25 22 -22 -122 rcurveline
            -10 -43 -38 -32 -49 -1 rrcurveto
            return
          </CharString>
          <CharString index="403">
            -229 -193 1145 hstem
            -98 659 vstem
            -98 -193 rmoveto
            190 hlineto
            469 1145 rlineto
            -189 hlineto
            endchar
          </CharString>
          <CharString index="404">
            -107 0 85 callgsubr
            return
          </CharString>
          <CharString index="405">
            173 93 141 71 239 543 callgsubr
            return
          </CharString>
          <CharString index="406">
            hlineto
            63 callsubr
            -3 hlineto
            return
          </CharString>
          <CharString index="407">
            -38 rmoveto
            540 callsubr
            return
          </CharString>
          <CharString index="408">
            49 45 38 48 8 hvcurveto
            return
          </CharString>
          <CharString index="409">
            -19 -105 614 callsubr
            return
          </CharString>
          <CharString index="410">
            -50 callsubr
            173 callsubr
            return
          </CharString>
          <CharString index="411">
            552 callsubr
            40 174 -127 162 -162 430 -172 172 return
          </CharString>
          <CharString index="412">
            -75 callsubr
            53 15 -34 -52 -6 hvcurveto
            -128 -15 75 -91 113 hhcurveto
            64 51 23 39 35 hvcurveto
            return
          </CharString>
          <CharString index="413">
            41 callsubr
            -720 -107 callgsubr
            146 401 callgsubr
            -77 -13 -34 -56 -114 hhcurveto
            return
          </CharString>
          <CharString index="414">
            -3 -17 rlineto
            -37 -7 -25 -27 -37 hhcurveto
            -48 -8 35 37 7 hvcurveto
            10 57 rlineto
            23 hlineto
            155 140 74 170 30 hvcurveto
            return
          </CharString>
          <CharString index="415">
            -51 -9 -24 -28 -38 hhcurveto
            653 342 -91 callsubr
            -1590 -4 callgsubr
            rlineto
            return
          </CharString>
          <CharString index="416">
            137 97 84 122 31 hvcurveto
            10 hlineto
            33 28 0 1 24 hvcurveto
            return
          </CharString>
          <CharString index="417">
            -26 18 callgsubr
            40 7 525 callsubr
            -48 rlineto
            return
          </CharString>
          <CharString index="418">
            -47 -26 31 43 3 hvcurveto
            -168 hlineto
            -51 -290 rlineto
            175 hlineto
            return
          </CharString>
          <CharString index="419">
            113 callgsubr
            226 callsubr
            162 return
          </CharString>
          <CharString index="420">
            -39 -22 20 38 5 583 callsubr
            -45 -258 586 callgsubr
            return
          </CharString>
          <CharString index="421">
            156 -156 return
          </CharString>
          <CharString index="422">
            26 145 rlineto
            return
          </CharString>
          <CharString index="423">
            328 413 -62 callsubr
            return
          </CharString>
          <CharString index="424">
            183 59 rmoveto
            26 13 -19 -40 -7 hvcurveto
            -41 -8 -19 -19 -26 hhcurveto
            -27 -12 19 41 8 hvcurveto
            40 7 19 19 26 hhcurveto
            return
          </CharString>
          <CharString index="425">
            112 439 callsubr
            42 190 -143 -69 callsubr
            383 283 callgsubr
            return
          </CharString>
          <CharString index="426">
            7 34 21 43 555 callsubr
            return
          </CharString>
          <CharString index="427">
            -150 143 callsubr
            return
          </CharString>
          <CharString index="428">
            -150 174 callsubr
            return
          </CharString>
          <CharString index="429">
            -143 -26 85 return
          </CharString>
          <CharString index="430">
            rlineto
            176 hlineto
            return
          </CharString>
          <CharString index="431">
            42 -2 17 46 44 hhcurveto
            28 14 -23 -29 -5 hvcurveto
            -77 -14 -77 -24 -105 hhcurveto
            -84 hlineto
            -9 -27 -6 -25 -4 -26 rrcurveto
            return
          </CharString>
          <CharString index="432">
            -24 -137 rlineto
            -106 404 callsubr
            return
          </CharString>
          <CharString index="433">
            -52 30 63 -30 83 hhcurveto
            139 88 87 147 24 hvcurveto
            7 38 rlineto
            112 hlineto
            -57 606 callsubr
            return
          </CharString>
          <CharString index="434">
            rmoveto
            69 53 44 56 10 hvcurveto
            57 10 -38 45 -69 hhcurveto
            -70 -52 -45 -57 -10 hvcurveto
            -56 346 callgsubr
            endchar
          </CharString>
          <CharString index="435">
            rmoveto
            58 10 -38 45 -57 hhcurveto
            -57 -54 -45 -58 -9 672 callsubr
            -46 56 hhcurveto
            58 667 callgsubr
          </CharString>
          <CharString index="436">
            146 callsubr
            52 9 return
          </CharString>
          <CharString index="437">
            -139 -26 86 -118 172 hhcurveto
            92 74 32 48 54 hvcurveto
            return
          </CharString>
          <CharString index="438">
            hlineto
            95 callsubr
            return
          </CharString>
          <CharString index="439">
            -58 -331 rlineto
            181 -81 callsubr
            return
          </CharString>
          <CharString index="440">
            -142 142 66 127 55 -11 callgsubr
            return
          </CharString>
          <CharString index="441">
            -150 445 callgsubr
            return
          </CharString>
          <CharString index="442">
            556 callsubr
            -156 hlineto
            return
          </CharString>
          <CharString index="443">
            hhcurveto
            -42 -24 28 40 7 hvcurveto
            return
          </CharString>
          <CharString index="444">
            hlineto
            302 callsubr
            return
          </CharString>
          <CharString index="445">
            -22 248 callgsubr
            return
          </CharString>
          <CharString index="446">
            449 callsubr
            206 hstemhm
            return
          </CharString>
          <CharString index="447">
            314 callsubr
            723 return
          </CharString>
          <CharString index="448">
            493 callgsubr
            8 return
          </CharString>
          <CharString index="449">
            531 233 callsubr
            return
          </CharString>
          <CharString index="450">
            hlineto
            29 163 rlineto
            return
          </CharString>
          <CharString index="451">
            90 144 26 hvcurveto
            return
          </CharString>
          <CharString index="452">
            -13 496 callgsubr
            return
          </CharString>
          <CharString index="453">
            hvcurveto
            -172 hlineto
            return
          </CharString>
          <CharString index="454">
            -159 150 return
          </CharString>
          <CharString index="455">
            -21 705 -20 return
          </CharString>
          <CharString index="456">
            299 rmoveto
            -60 -22 34 callgsubr
            -36 -209 rlineto
            -45 -13 -32 -37 -52 hhcurveto
            return
          </CharString>
          <CharString index="457">
            262 -262 370 -370 834 -728 156 207 139 callgsubr
            -3 726 return
          </CharString>
          <CharString index="458">
            93 rmoveto
            -70 callsubr
            return
          </CharString>
          <CharString index="459">
            -419 -74 callgsubr
            return
          </CharString>
          <CharString index="460">
            40 8 36 16 52 hhcurveto
            52 241 callsubr
            550 callsubr
            return
          </CharString>
          <CharString index="461">
            -70 callsubr
            endchar
          </CharString>
          <CharString index="462">
            -101 callsubr
            hintmask 1000010010000000
            202 callgsubr
            return
          </CharString>
          <CharString index="463">
            7 callgsubr
            202 -29 152 -44 546 callgsubr
            23 return
          </CharString>
          <CharString index="464">
            651 callsubr
            233 callgsubr
            158 callgsubr
            return
          </CharString>
          <CharString index="465">
            rmoveto
            55 9 48 41 60 hhcurveto
            61 30 -43 -53 -10 hvcurveto
            -51 -9 -44 -45 -61 hhcurveto
            -60 -33 40 56 9 hvcurveto
            return
          </CharString>
          <CharString index="466">
            -140 -101 -74 -120 -20 hvcurveto
            -14 -83 34 -65 66 -53 -228 -156 rcurveline
            -3 -22 rlineto
            205 hlineto
            return
          </CharString>
          <CharString index="467">
            -126 -22 77 -85 138 496 callsubr
            91 143 return
          </CharString>
          <CharString index="468">
            37 69 7 hvcurveto
            116 17 51 79 16 95 12 71 rcurveline
            return
          </CharString>
          <CharString index="469">
            -155 -29 75 -100 136 hhcurveto
            58 53 21 39 39 hvcurveto
            return
          </CharString>
          <CharString index="470">
            -434 -326 -1 -7 rlineto
            236 hlineto
            185 152 return
          </CharString>
          <CharString index="471">
            rmoveto
            57 callgsubr
            return
          </CharString>
          <CharString index="472">
            162 50 163 return
          </CharString>
          <CharString index="473">
            -25 -141 rlineto
            return
          </CharString>
          <CharString index="474">
            469 callsubr
            9 -20 hstemhm
            27 179 386 162 95 173 hintmask 0100001010011100
            653 return
          </CharString>
          <CharString index="475">
            433 266 142 callgsubr
            return
          </CharString>
          <CharString index="476">
            rmoveto
            -33 -18 24 35 6 hvcurveto
            28 161 453 callsubr
            -28 -161 rlineto
            -35 -6 -22 -24 -35 hhcurveto
            return
          </CharString>
          <CharString index="477">
            411 callgsubr
            118 hlineto
            return
          </CharString>
          <CharString index="478">
            -5 -19 -35 -8 -35 hhcurveto
            -45 -39 22 45 9 hvcurveto
            35 6 28 20 46 hhcurveto
            49 hlineto
            22 121 rlineto
            return
          </CharString>
          <CharString index="479">
            -146 -153 527 callgsubr
            rlineto
            endchar
          </CharString>
          <CharString index="480">
            -60 -49 -21 -36 -34 hvcurveto
            23 134 rlineto
            return
          </CharString>
          <CharString index="481">
            -31 45 44 -1 hvcurveto
            180 5 98 94 return
          </CharString>
          <CharString index="482">
            -308 -72 callsubr
            return
          </CharString>
          <CharString index="483">
            hhcurveto
            -134 -112 262 callgsubr
            return
          </CharString>
          <CharString index="484">
            -75 -14 55 -42 93 hhcurveto
            return
          </CharString>
          <CharString index="485">
            -2 -11 -1 -15 -14 vvcurveto
            return
          </CharString>
          <CharString index="486">
            234 callgsubr
            60 11 return
          </CharString>
          <CharString index="487">
            156 55 184 -184 505 -375 159 -159 260 callgsubr
            19 return
          </CharString>
          <CharString index="488">
            -107 callgsubr
            344 hlineto
            -20 -111 rlineto
            -57 hlineto
            -128 -119 -63 -141 -24 hvcurveto
            return
          </CharString>
          <CharString index="489">
            577 callsubr
            29 5 20 20 26 hhcurveto
            38 45 callgsubr
            return
          </CharString>
          <CharString index="490">
            481 callgsubr
            49 19 -40 -41 -7 hvcurveto
            return
          </CharString>
          <CharString index="491">
            401 callgsubr
            -55 -10 -31 -38 -115 hhcurveto
            -295 hlineto
            -136 -117 -62 -146 -26 hvcurveto
            return
          </CharString>
          <CharString index="492">
            452 callgsubr
            64 callgsubr
            return
          </CharString>
          <CharString index="493">
            -91 22 75 -61 126 hhcurveto
            7 13 callsubr
            return
          </CharString>
          <CharString index="494">
            hlineto
            42 -3 18 46 43 hhcurveto
            29 14 -23 -29 -6 hvcurveto
            return
          </CharString>
          <CharString index="495">
            20 -49 -37 -4 hvcurveto
            -5 -29 rlineto
            return
          </CharString>
          <CharString index="496">
            -114 148 -148 195 return
          </CharString>
          <CharString index="497">
            -107 callgsubr
            317 hlineto
            return
          </CharString>
          <CharString index="498">
            rlineto
            181 -22 callgsubr
            return
          </CharString>
          <CharString index="499">
            -147 -99 -106 -135 -5 hvcurveto
            return
          </CharString>
          <CharString index="500">
            -41 336 callsubr
            return
          </CharString>
          <CharString index="501">
            -107 callgsubr
            88 hlineto
            return
          </CharString>
          <CharString index="502">
            6 37 448 callsubr
            return
          </CharString>
          <CharString index="503">
            hlineto
            -4 -13 -4 -13 -2 -13 return
          </CharString>
          <CharString index="504">
            -9 -69 callsubr
            219 return
          </CharString>
          <CharString index="505">
            -33 280 callsubr
            return
          </CharString>
          <CharString index="506">
            rmoveto
            -83 -39 47 59 return
          </CharString>
          <CharString index="507">
            185 96 144 return
          </CharString>
          <CharString index="508">
            -107 callgsubr
            430 hlineto
            -18 -100 rlineto
            -83 66 callgsubr
            return
          </CharString>
          <CharString index="509">
            583 6 callgsubr
            -557 258 callsubr
            return
          </CharString>
          <CharString index="510">
            593 callgsubr
            -435 -326 -1 -7 rlineto
            237 hlineto
            return
          </CharString>
          <CharString index="511">
            222 rmoveto
            -83 -93 callsubr
            return
          </CharString>
          <CharString index="512">
            141 callsubr
            endchar
          </CharString>
          <CharString index="513">
            hhcurveto
            107 83 48 52 39 hvcurveto
            -31 -177 rlineto
            endchar
          </CharString>
          <CharString index="514">
            316 0 156 -48 148 31 148 115 155 hstemhm
            -48 1051 hintmask 10111000
            return
          </CharString>
          <CharString index="515">
            78 callsubr
            -63 -91 callgsubr
            27 179 return
          </CharString>
          <CharString index="516">
            55 -27 -62 30 -86 hhcurveto
            -132 -104 262 callgsubr
            -9 -48 6 -40 16 -31 rrcurveto
            return
          </CharString>
          <CharString index="517">
            -45 -8 -37 -32 -46 hhcurveto
            -48 -24 33 46 9 hvcurveto
            51 9 41 31 65 hhcurveto
            193 hlineto
            return
          </CharString>
          <CharString index="518">
            118 57 162 -116 116 43 111 -111 310 -94 callsubr
            return
          </CharString>
          <CharString index="519">
            -17 -85 -49 -54 -72 -2 rrcurveto
            -50 -35 493 callgsubr
            9 38 493 callsubr
            return
          </CharString>
          <CharString index="520">
            rmoveto
            104 591 callgsubr
            -130 -740 rlineto
            endchar
          </CharString>
          <CharString index="521">
            127 -127 222 -43 43 -43 133 hstemhm
            return
          </CharString>
          <CharString index="522">
            -5 callgsubr
            -133 return
          </CharString>
          <CharString index="523">
            -71 -13 -36 -48 -105 hhcurveto
            -100 hlineto
            -40 -223 rlineto
            return
          </CharString>
          <CharString index="524">
            -165 -282 674 callgsubr
            97 282 rlineto
            return
          </CharString>
          <CharString index="525">
            -86 -14 -63 -49 -90 hhcurveto
            -49 -48 13 43 6 hvcurveto
            return
          </CharString>
          <CharString index="526">
            262 callgsubr
            -8 -47 6 -39 16 -32 rrcurveto
            return
          </CharString>
          <CharString index="527">
            53 10 32 35 51 hhcurveto
            56 12 -48 -49 -9 hvcurveto
            return
          </CharString>
          <CharString index="528">
            -205 -67 102 -162 236 hhcurveto
            return
          </CharString>
          <CharString index="529">
            78 callgsubr
            133 hhcurveto
            return
          </CharString>
          <CharString index="530">
            -94 callsubr
            23 return
          </CharString>
          <CharString index="531">
            49 9 41 33 49 hhcurveto
            return
          </CharString>
          <CharString index="532">
            326 233 callsubr
            return
          </CharString>
          <CharString index="533">
            48 274 rlineto
            return
          </CharString>
          <CharString index="534">
            212 hmoveto
            -14 callgsubr
            474 callgsubr
            hvcurveto
            return
          </CharString>
          <CharString index="535">
            189 callsubr
            endchar
          </CharString>
          <CharString index="536">
            -143 143 return
          </CharString>
          <CharString index="537">
            hstem
            32 542 vstem
            32 257 rmoveto
            511 hlineto
            31 177 rlineto
            -511 hlineto
            return
          </CharString>
          <CharString index="538">
            394 callgsubr
            -48 15 -39 36 -26 -61 -38 -44 -62 -15 -84 rrcurveto
            return
          </CharString>
          <CharString index="539">
            -23 -129 -25 40 -47 22 -62 3 rlinecurve
            -116 5 -98 -74 -36 -112 rrcurveto
            return
          </CharString>
          <CharString index="540">
            vstem
            209 740 rmoveto
            -130 -740 rlineto
            179 hlineto
            130 740 rlineto
            return
          </CharString>
          <CharString index="541">
            66 callgsubr
            422 callsubr
            return
          </CharString>
          <CharString index="542">
            -28 -158 rlineto
            -51 -9 -24 -28 -39 hhcurveto
            -32 -24 22 44 7 hvcurveto
            1 7 rlineto
            return
          </CharString>
          <CharString index="543">
            205 -140 331 callgsubr
            return
          </CharString>
          <CharString index="544">
            -24 27 42 -14 60 hhcurveto
            147 92 96 136 24 hvcurveto
            2 9 rlineto
            91 hlineto
            return
          </CharString>
          <CharString index="545">
            -122 -21 79 -81 136 hhcurveto
            147 94 96 135 24 hvcurveto
            6 33 rlineto
            return
          </CharString>
          <CharString index="546">
            145 114 632 callsubr
            return
          </CharString>
          <CharString index="547">
            150 96 -11 callgsubr
            25 510 callgsubr
            return
          </CharString>
          <CharString index="548">
            40 7 34 21 42 hhcurveto
            49 194 callgsubr
            return
          </CharString>
          <CharString index="549">
            167 231 163 -163 299 hstemhm
            return
          </CharString>
          <CharString index="550">
            206 -206 215 347 callsubr
            hstemhm
            return
          </CharString>
          <CharString index="551">
            -24 -137 85 callsubr
            return
          </CharString>
          <CharString index="552">
            hlineto
            -13 callsubr
            return
          </CharString>
          <CharString index="553">
            379 callgsubr
            -62 return
          </CharString>
          <CharString index="554">
            7 37 -4 31 -8 26 rrcurveto
            return
          </CharString>
          <CharString index="555">
            -3 32 -9 26 rrcurveto
            return
          </CharString>
          <CharString index="556">
            142 -142 return
          </CharString>
          <CharString index="557">
            147 26 hvcurveto
            return
          </CharString>
          <CharString index="558">
            -148 -28 78 return
          </CharString>
          <CharString index="559">
            27 156 rlineto
            return
          </CharString>
          <CharString index="560">
            rlineto
            108 hlineto
            return
          </CharString>
          <CharString index="561">
            -107 -14 74 -93 144 hhcurveto
            145 101 94 140 25 hvcurveto
            1 7 rlineto
            return
          </CharString>
          <CharString index="562">
            33 49 hhcurveto
            53 25 -38 -46 -9 hvcurveto
            -4 vlineto
            -66 callgsubr
            return
          </CharString>
          <CharString index="563">
            -30 -13 -30 -20 -36 hhcurveto
            -40 -29 25 51 8 hvcurveto
            49 9 40 27 39 hhcurveto
            return
          </CharString>
          <CharString index="564">
            0 195 -146 152 -149 143 126 147 -86 144 return
          </CharString>
          <CharString index="565">
            48 callgsubr
            320 callsubr
            return
          </CharString>
          <CharString index="566">
            105 callgsubr
            378 callsubr
            return
          </CharString>
          <CharString index="567">
            rmoveto
            -111 hlineto
            21 120 rlineto
            111 hlineto
            269 hmoveto
            -95 callgsubr
            return
          </CharString>
          <CharString index="568">
            -146 147 -40 487 callgsubr
            -84 140 return
          </CharString>
          <CharString index="569">
            40 8 590 callgsubr
            -35 -29 -40 hhcurveto
            return
          </CharString>
          <CharString index="570">
            -102 callsubr
            53 10 return
          </CharString>
          <CharString index="571">
            -94 callgsubr
            331 hlineto
            return
          </CharString>
          <CharString index="572">
            -165 -30 122 -99 156 hhcurveto
            endchar
          </CharString>
          <CharString index="573">
            rmoveto
            -35 -23 21 35 6 hvcurveto
            36 return
          </CharString>
          <CharString index="574">
            436 214 rmoveto
            -60 -50 -21 return
          </CharString>
          <CharString index="575">
            hlineto
            -7 -18 -6 -20 -4 -21 rrcurveto
            return
          </CharString>
          <CharString index="576">
            509 callsubr
            144 return
          </CharString>
          <CharString index="577">
            57 30 -38 -65 -12 hvcurveto
            return
          </CharString>
          <CharString index="578">
            141 95 82 137 return
          </CharString>
          <CharString index="579">
            149 112 145 return
          </CharString>
          <CharString index="580">
            45 42 52 39 return
          </CharString>
          <CharString index="581">
            23 281 rmoveto
            return
          </CharString>
          <CharString index="582">
            76 62 45 116 40 hvcurveto
            -99 hlineto
            hintmask 01101001
            175 callgsubr
            return
          </CharString>
          <CharString index="583">
            233 callsubr
            476 42 callsubr
            return
          </CharString>
          <CharString index="584">
            -17 callsubr
            52 9 32 43 51 hhcurveto
            return
          </CharString>
          <CharString index="585">
            32 callsubr
            102 hlineto
            return
          </CharString>
          <CharString index="586">
            93 -69 112 -93 50 -50 203 -114 114 -52 112 hstemhm
            return
          </CharString>
          <CharString index="587">
            24 -61 109 -128 hhcurveto
            -57 -48 -22 -36 -33 hvcurveto
            22 126 rlineto
            return
          </CharString>
          <CharString index="588">
            -20 -35 -7 -38 564 callsubr
            return
          </CharString>
          <CharString index="589">
            -34 -192 rlineto
            181 hlineto
            47 269 rlineto
            61 14 35 39 54 hhcurveto
            return
          </CharString>
          <CharString index="590">
            -128 429 callgsubr
            163 169 2 2 2 2 2 2 rlinecurve
            return
          </CharString>
          <CharString index="591">
            -75 callsubr
            40 return
          </CharString>
          <CharString index="592">
            568 72 84 134 hstem
            189 101 return
          </CharString>
          <CharString index="593">
            56 -106 473 callgsubr
            -84 138 rlineto
            return
          </CharString>
          <CharString index="594">
            233 callgsubr
            650 -409 154 return
          </CharString>
          <CharString index="595">
            234 -234 452 -371 153 return
          </CharString>
          <CharString index="596">
            -128 -127 -1 -9 rlineto
            192 hlineto
            return
          </CharString>
          <CharString index="597">
            371 -94 callsubr
            62 184 return
          </CharString>
          <CharString index="598">
            hhcurveto
            -189 -88 -115 -159 -28 hvcurveto
            return
          </CharString>
          <CharString index="599">
            532 callsubr
            122 150 return
          </CharString>
          <CharString index="600">
            26 650 callgsubr
            return
          </CharString>
          <CharString index="601">
            -20 673 callsubr
            return
          </CharString>
          <CharString index="602">
            94 21 125 rrcurveto
            return
          </CharString>
          <CharString index="603">
            hhcurveto
            150 93 return
          </CharString>
          <CharString index="604">
            34 29 42 hhcurveto
            return
          </CharString>
          <CharString index="605">
            hlineto
            hintmask 10011000
            52 132 rlineto
            -183 hlineto
            hintmask 10101000
            -52 -132 rlineto
            return
          </CharString>
          <CharString index="606">
            -315 187 -187 609 -560 138 166 156 return
          </CharString>
          <CharString index="607">
            -505 -69 callgsubr
            return
          </CharString>
          <CharString index="608">
            29 156 rlineto
            -1 -9 -7 -1 -8 hhcurveto
            -59 -29 37 61 11 hvcurveto
            return
          </CharString>
          <CharString index="609">
            395 callsubr
            100 hlineto
            -5 -16 -5 -18 -3 -18 rrcurveto
            return
          </CharString>
          <CharString index="610">
            -13 -71 41 -34 53 -12 -1 -3 rcurveline
            -62 -14 -51 -49 -11 -62 rrcurveto
            return
          </CharString>
          <CharString index="611">
            22 -54 102 -128 hhcurveto
            -64 -54 -23 -37 -37 hvcurveto
            22 128 rlineto
            return
          </CharString>
          <CharString index="612">
            -69 callgsubr
            -327 return
          </CharString>
          <CharString index="613">
            -278 191 -191 487 -487 564 -506 133 return
          </CharString>
          <CharString index="614">
            -440 152 return
          </CharString>
          <CharString index="615">
            rmoveto
            7 38 rlineto
            return
          </CharString>
          <CharString index="616">
            150 -144 return
          </CharString>
          <CharString index="617">
            -141 rlineto
            -6 return
          </CharString>
          <CharString index="618">
            -130 -24 117 -63 149 hhcurveto
            104 78 34 58 53 hvcurveto
            return
          </CharString>
          <CharString index="619">
            -34 -6 -13 -31 -36 hhcurveto
            -31 -9 26 30 4 hvcurveto
            16 93 rlineto
            return
          </CharString>
          <CharString index="620">
            192 141 64 -11 callgsubr
            29 177 -177 549 return
          </CharString>
          <CharString index="621">
            20 -2 24 hhcurveto
            118 99 74 145 27 hvcurveto
            129 24 return
          </CharString>
          <CharString index="622">
            -90 150 hhcurveto
            134 104 75 124 30 346 callsubr
            return
          </CharString>
          <CharString index="623">
            96 callgsubr
            50 43 14 22 35 hvcurveto
            return
          </CharString>
          <CharString index="624">
            274 callgsubr
            336 return
          </CharString>
          <CharString index="625">
            5 27 rlineto
            47 8 29 50 56 hhcurveto
            48 17 -31 -52 -6 hvcurveto
            return
          </CharString>
          <CharString index="626">
            -143 -22 78 -111 169 hhcurveto
            7 13 callsubr
            return
          </CharString>
          <CharString index="627">
            hlineto
            27 406 callgsubr
          </CharString>
          <CharString index="628">
            -29 393 callsubr
            return
          </CharString>
          <CharString index="629">
            -265 rlineto
            -143 hlineto
            5 29 rlineto
            return
          </CharString>
          <CharString index="630">
            342 callgsubr
            68 128 return
          </CharString>
          <CharString index="631">
            179 -26 78 87 27 153 rrcurveto
            return
          </CharString>
          <CharString index="632">
            34 21 42 555 callsubr
            return
          </CharString>
          <CharString index="633">
            -21 404 157 5 -20 return
          </CharString>
          <CharString index="634">
            22 609 callgsubr
            return
          </CharString>
          <CharString index="635">
            101 -11 -76 58 -111 hhcurveto
            return
          </CharString>
          <CharString index="636">
            -31 472 callgsubr
            return
          </CharString>
          <CharString index="637">
            590 494 callgsubr
            return
          </CharString>
          <CharString index="638">
            149 556 -20 hstem
            return
          </CharString>
          <CharString index="639">
            671 callgsubr
            147 return
          </CharString>
          <CharString index="640">
            -11 -60 -29 -46 -79 -10 return
          </CharString>
          <CharString index="641">
            hlineto
            -12 -70 rlineto
            -28 hlineto
            return
          </CharString>
          <CharString index="642">
            17 hvcurveto
            7 39 1 43 return
          </CharString>
          <CharString index="643">
            61 71 93 16 hvcurveto
            return
          </CharString>
          <CharString index="644">
            -24 -3 -6 -22 hvcurveto
            return
          </CharString>
          <CharString index="645">
            101.5 return
          </CharString>
          <CharString index="646">
            671 callsubr
            rlineto
            return
          </CharString>
          <CharString index="647">
            -24 -135 rlineto
            return
          </CharString>
          <CharString index="648">
            -112 -19 hvcurveto
            return
          </CharString>
          <CharString index="649">
            150 -150 return
          </CharString>
          <CharString index="650">
            -21 49 152 return
          </CharString>
          <CharString index="651">
            48 17 22 20 35 hhcurveto
            hintmask 0100010010000000
            59 40 -66 92 hhcurveto
            return
          </CharString>
          <CharString index="652">
            204 callsubr
            180 callsubr
            163 return
          </CharString>
          <CharString index="653">
            -117 -21 76 -70 114 hhcurveto
            72 63 24 46 47 hvcurveto
            return
          </CharString>
          <CharString index="654">
            46 hlineto
            39 38 -22 -52 -8 hvcurveto
            -37 -7 -30 -32 -49 hhcurveto
            return
          </CharString>
          <CharString index="655">
            419 callgsubr
            -60 -58 return
          </CharString>
          <CharString index="656">
            266 370 rmoveto
            28 4 24 10 27 hhcurveto
            170 hlineto
            return
          </CharString>
          <CharString index="657">
            -87 hlineto
            -47 -44 16 57 13 hvcurveto
            248 callsubr
            return
          </CharString>
          <CharString index="658">
            rmoveto
            10 55 573 callsubr
            -612 hlineto
            return
          </CharString>
          <CharString index="659">
            128 65 627 callsubr
            return
          </CharString>
          <CharString index="660">
            -136 -24 77 -105 173 hhcurveto
            86 68 34 51 47 hvcurveto
            return
          </CharString>
          <CharString index="661">
            573 callgsubr
            104 590 rlineto
            89 hlineto
            return
          </CharString>
          <CharString index="662">
            hhcurveto
            48 hlineto
            -8 return
          </CharString>
          <CharString index="663">
            -27 -158 rlineto
            return
          </CharString>
          <CharString index="664">
            -17 callsubr
            55 10 return
          </CharString>
          <CharString index="665">
            112 -101 197 -137 137 -38 112 hstemhm
            return
          </CharString>
          <CharString index="666">
            rmoveto
            -41 -31 19 38 7 hvcurveto
            31 5 26 21 47 hhcurveto
            return
          </CharString>
          <CharString index="667">
            -449 -363 rlineto
            208 hlineto
            214 183 rlineto
            return
          </CharString>
          <CharString index="668">
            -99 9 67 -68 114 204 callgsubr
            return
          </CharString>
          <CharString index="669">
            -11 -35 hhcurveto
            -13 -73 rlineto
            121 61 80 96 17 hvcurveto
            return
          </CharString>
          <CharString index="670">
            279 callgsubr
            -3 -13 rlineto
            -49 -8 return
          </CharString>
          <CharString index="671">
            rlinecurve
            132 callgsubr
            return
          </CharString>
          <CharString index="672">
            -19 31 8 42 rrcurveto
            279 -577 rmoveto
            166 hlineto
            return
          </CharString>
          <CharString index="673">
            -59 -10 -50 -41 -76 hhcurveto
            -73 -33 38 53 9 hvcurveto
            61 return
          </CharString>
          <CharString index="674">
            -92 127 hhcurveto
            115 103 61 124 23 hvcurveto
            7 return
          </CharString>
          <CharString index="675">
            -137 -130 rlineto
            188 hlineto
            167 173 rlineto
            return
          </CharString>
          <CharString index="676">
            25 -247 -21 261 171 return
          </CharString>
          <CharString index="677">
            -133 -23 91 -98 135 hhcurveto
            return
          </CharString>
          <CharString index="678">
            116 104 67 127 21 hvcurveto
            return
          </CharString>
          <CharString index="679">
            36 6 31 29 51 hhcurveto
            16 hlineto
            return
          </CharString>
          <CharString index="680">
            rlineto
            124 -43 callsubr
            return
          </CharString>
          <CharString index="681">
            -505 179 -179 505 return
          </CharString>
          <CharString index="682">
            -94 callsubr
            14 172 return
          </CharString>
          <CharString index="683">
            114 103 66 129 22 hvcurveto
            return
          </CharString>
          <CharString index="684">
            -87 hlineto
            -47 -43 16 57 12 hvcurveto
            return
          </CharString>
          <CharString index="685">
            -134 -141 rlineto
            191 hlineto
            return
          </CharString>
          <CharString index="686">
            rmoveto
            -67 -51 46 74 13 hvcurveto
            3 return
          </CharString>
          <CharString index="687">
            205 -104 104 -104 return
          </CharString>
          <CharString index="688">
            21 543 callsubr
            return
          </CharString>
          <CharString index="689">
            -10 672 callsubr
            return
          </CharString>
          <CharString index="690">
            hvcurveto
            -162 hlineto
            return
          </CharString>
          <CharString index="691">
            hstemhm
            37 203 return
          </CharString>
          <CharString index="692">
            -1 -5 -1 -5 return
          </CharString>
          <CharString index="693">
            33 186 rlineto
            return
          </CharString>
          <CharString index="694">
            hvcurveto
            115 17 return
          </CharString>
          <CharString index="695">
            7 callsubr
            -88 hlineto
            105 return
          </CharString>
          <CharString index="696">
            -60 80 -119 hhcurveto
            -108 -62 -64 -68 -28 hvcurveto
            return
          </CharString>
          <CharString index="697">
            -91 callgsubr
            63 return
          </CharString>
          <CharString index="698">
            -39 -8 230 callsubr
            return
          </CharString>
          <CharString index="699">
            76 13 54 40 56 hhcurveto
            134 callsubr
            return
          </CharString>
          <CharString index="700">
            79 hhcurveto
            133 125 109 179 32 hvcurveto
            return
          </CharString>
          <CharString index="701">
            158 callgsubr
            23 return
          </CharString>
          <CharString index="702">
            -154 -91 -113 -128 -5 hvcurveto
            162 hlineto
            return
          </CharString>
          <CharString index="703">
            -25 106 -78 138 hhcurveto
            46 hlineto
            25 141 rlineto
            return
          </CharString>
          <CharString index="704">
            -3 17 19 -2 19 hhcurveto
            32 30 4 9 28 hvcurveto
            return
          </CharString>
          <CharString index="705">
            hhcurveto
            126 callgsubr
            -69 rlineto
            -53 hlineto
            return
          </CharString>
          <CharString index="706">
            113.5 -113.5 372 return
          </CharString>
          <CharString index="707">
            248 218 466 callsubr
            return
          </CharString>
          <CharString index="708">
            49 279 rlineto
            -1 vlineto
            52 9 31 39 51 hhcurveto
            return
          </CharString>
          <CharString index="709">
            54 10 34 34 50 hhcurveto
            56 10 -48 -49 -8 hvcurveto
            return
          </CharString>
          <CharString index="710">
            144.5 -144.5 490 return
          </CharString>
          <CharString index="711">
            212 rlineto
            109 667 callsubr
          </CharString>
          <CharString index="712">
            -136 rlineto
            181 hlineto
            return
          </CharString>
          <CharString index="713">
            -321 rlineto
            181 hlineto
            return
          </CharString>
          <CharString index="714">
            -52 -46 -13 -23 -38 hvcurveto
            return
          </CharString>
          <CharString index="715">
            hlineto
            345 callgsubr
            return
          </CharString>
          <CharString index="716">
            64 35 50 37 hvcurveto
            -13 return
          </CharString>
          <CharString index="717">
            -58 582 callsubr
            return
          </CharString>
          <CharString index="718">
            36 6 21 25 35 hhcurveto
            return
          </CharString>
          <CharString index="719">
            315 callgsubr
            endchar
          </CharString>
          <CharString index="720">
            586 callsubr
            endchar
          </CharString>
          <CharString index="721">
            rlineto
            -267 hlineto
            return
          </CharString>
          <CharString index="722">
            -9 hvcurveto
            -50 -9 return
          </CharString>
          <CharString index="723">
            126 -126 292 callsubr
            return
          </CharString>
          <CharString index="724">
            140 callsubr
            400 -94 callsubr
            return
          </CharString>
          <CharString index="725">
            -131 -105 -74 -129 -29 hvcurveto
            170 hlineto
            return
          </CharString>
          <CharString index="726">
            71 144 157 323 callgsubr
            182 return
          </CharString>
          <CharString index="727">
            -9 -22 callsubr
            205 return
          </CharString>
          <CharString index="728">
            101 -101 127 30 55 24 131 -102 102 return
          </CharString>
          <CharString index="729">
            282 524 callgsubr
            return
          </CharString>
          <CharString index="730">
            rmoveto
            229 callgsubr
            return
          </CharString>
          <CharString index="731">
            hvcurveto
            7 38 -3 31 -9 26 rrcurveto
            109 hlineto
            return
          </CharString>
          <CharString index="732">
            -319 230 50 142 callsubr
            return
          </CharString>
          <CharString index="733">
            49 492 callsubr
            return
          </CharString>
          <CharString index="734">
            241 159 callsubr
            return
          </CharString>
          <CharString index="735">
            rmoveto
            1 2 1 7 1 10 rrcurveto
            -175 hlineto
            return
          </CharString>
          <CharString index="736">
            333 813 rmoveto
            55 10 38 37 50 hhcurveto
            return
          </CharString>
          <CharString index="737">
            -46 57 hhcurveto
            58 54 46 56 9 hvcurveto
            endchar
          </CharString>
          <CharString index="738">
            -11 -62 -30 -47 -84 -9 rrcurveto
            return
          </CharString>
          <CharString index="739">
            150 -142 151 hstemhm
            return
          </CharString>
          <CharString index="740">
            -34 -56 -114 hhcurveto
            -9 hlineto
            return
          </CharString>
          <CharString index="741">
            16 30 11 33 7 36 rrcurveto
            return
          </CharString>
          <CharString index="742">
            116 21 -64 58 -99 hhcurveto
            return
          </CharString>
          <CharString index="743">
            362 -94 callsubr
            return
          </CharString>
          <CharString index="744">
            -8 216 -216 290 return
          </CharString>
          <CharString index="745">
            0 490 -489 141 return
          </CharString>
          <CharString index="746">
            hlineto
            -102 -67 -51 -73 -12 hvcurveto
            return
          </CharString>
          <CharString index="747">
            -4 -13 -3 -13 -2 -14 rrcurveto
            return
          </CharString>
          <CharString index="748">
            352 -113 113 hstemhm
            return
          </CharString>
          <CharString index="749">
            hhcurveto
            76 62 25 39 46 hvcurveto
            return
          </CharString>
          <CharString index="750">
            hlineto
            341 callgsubr
            return
          </CharString>
          <CharString index="751">
            646 callgsubr
            51 79 return
          </CharString>
          <CharString index="752">
            -8 497 callgsubr
            return
          </CharString>
          <CharString index="753">
            -274 103 42 92 return
          </CharString>
          <CharString index="754">
            -8 hvcurveto
            -49 -9 -40 return
          </CharString>
          <CharString index="755">
            152 138 return
          </CharString>
          <CharString index="756">
            -23 -22 -34 hhcurveto
            return
          </CharString>
          <CharString index="757">
            115 -115 return
          </CharString>
          <CharString index="758">
            574 callsubr
            -381 return
          </CharString>
          <CharString index="759">
            50 283 rlineto
            50 12 31 36 49 hhcurveto
            return
          </CharString>
          <CharString index="760">
            -62 -21 -41 callsubr
            return
          </CharString>
          <CharString index="761">
            323 callgsubr
            167 141 143 return
          </CharString>
          <CharString index="762">
            180 -180 505 -505 582 return
          </CharString>
          <CharString index="763">
            606 callsubr
            451 callgsubr
            return
          </CharString>
          <CharString index="764">
            172 574 callgsubr
            return
          </CharString>
          <CharString index="765">
            33 49 9 hvcurveto
            424 callsubr
            return
          </CharString>
          <CharString index="766" raw="1">
            e00ae306 0b  
          </CharString>
          <CharString index="767">
            274 callsubr
            53 return
          </CharString>
          <CharString index="768">
            21 -21 132 7 callgsubr
            608 return
          </CharString>
          <CharString index="769">
            152 115 147 -124 150 return
          </CharString>
          <CharString index="770">
            -22 -128 rlineto
            37 -23 -43 23 -65 hhcurveto
            return
          </CharString>
          <CharString index="771">
            149 588 callgsubr
            -128 128 return
          </CharString>
          <CharString index="772">
            179 -179 505 -419 147 return
          </CharString>
          <CharString index="773">
            rcurveline
            15 6 18 4 19 2 rrcurveto
            endchar
          </CharString>
          <CharString index="774">
            hlineto
            -103 -590 rlineto
            endchar
          </CharString>
          <CharString index="775">
            451 callgsubr
            endchar
          </CharString>
          <CharString index="776">
            hvcurveto
            -3 -14 -4 return
          </CharString>
          <CharString index="777">
            28 41 7 hvcurveto
            return
          </CharString>
          <CharString index="778">
            hlineto
            27 149 return
          </CharString>
          <CharString index="779">
            hvcurveto
            -56 -10 37 return
          </CharString>
          <CharString index="780">
            48 62 10 hvcurveto
            return
          </CharString>
          <CharString index="781">
            205 -205 return
          </CharString>
          <CharString index="782">
            -74 131 hhcurveto
            return
          </CharString>
        <CharString name=".notdef">
          -155 0 50 600 50 hstem
          0 50 400 50 vstem
          0 vmoveto
          500 700 -500 hlineto
          250 -305 rmoveto
          -170 255 rlineto
          340 hlineto
          -140 -300 rmoveto
          170 255 rlineto
          -510 vlineto
          -370 -45 rmoveto
          170 255 170 -255 rlineto
          -370 555 rmoveto
          170 -255 -170 -255 rlineto
          endchar
        </CharString>
        <CharString name="A">
          1 callgsubr
          hintmask 10110000
          -23 149 102 callsubr
        </CharString>
        <CharString name="AE">
          407 callsubr
          534 556 70 callsubr
        </CharString>
        <CharString name="Aacute">
          1 callgsubr
          -117 764 -68 callsubr
          hintmask 10110000
          -176 -728 102 callsubr
        </CharString>
        <CharString name="Abreve">
          102 callgsubr
          64 339 callsubr
          -42 739 hintmask 10110100
          -24 callgsubr
          hintmask 01110100
          223 callsubr
          200 822 rmoveto
          hintmask 10101100
          314 callgsubr
          hintmask 10110100
          209 callgsubr
          hintmask 10101100
          34 callsubr
          hintmask 10110100
          -125 -21 65 -63 102 hhcurveto
          hintmask 01110100
          103 88 63 125 21 hvcurveto
          hintmask 10110100
          -223 -673 102 callsubr
        </CharString>
        <CharString name="Acircumflex">
          1 callgsubr
          169 756 -55 callgsubr
          hintmask 10110000
          -169 -476 102 callsubr
        </CharString>
        <CharString name="Adieresis">
          102 callgsubr
          82 160 hstemhm
          -42 739 -407 365 callsubr
          hintmask 10111000
          -24 callgsubr
          hintmask 01111000
          223 callsubr
          hintmask 10110110
          -115 652 -88 callgsubr
          -120 -503 102 callsubr
        </CharString>
        <CharString name="Agrave">
          1 callgsubr
          -123 729 -15 callsubr
          hintmask 10110000
          74 -728 102 callsubr
        </CharString>
        <CharString name="Amacron">
          102 callgsubr
          87 132 hstemhm
          -42 739 hintmask 10111000
          -24 callgsubr
          hintmask 01111000
          223 callsubr
          -215 657 35 callgsubr
          hintmask 10111000
          169 -640 102 callsubr
        </CharString>
        <CharString name="Aogonek">
          100 -220 106 135 -21 115 149 441 -20 hstem
          -42 739 vstem
          339 705 rmoveto
          -381 -705 rlineto
          206 hlineto
          223 callsubr
          17 -110 -42 -32 -17 -34 -7 -37 rlinecurve
          -80 -14 55 -42 92 hhcurveto
          39 37 6 10 33 hvcurveto
          18 105 rlineto
          -10 -32 -28 -5 -21 hhcurveto
          -26 -13 11 19 3 hvcurveto
          4 18 15 20 63 26 49 20 rcurveline
          -132 705 rlineto
          -116 -441 102 callsubr
        </CharString>
        <CharString name="Aring">
          102 callgsubr
          58 79 96 78 hstemhm
          528 82 hintmask 10111100
          -24 callgsubr
          hintmask 01111100
          223 callsubr
          56 755 rmoveto
          -29 -5 -24 -19 -27 hhcurveto
          -26 -18 19 29 5 hvcurveto
          29 6 23 19 27 hhcurveto
          27 17 -19 -29 -5 hvcurveto
          -174 -1 rmoveto
          -78 -13 48 -48 70 hhcurveto
          70 65 48 78 13 hvcurveto
          79 15 -49 48 -70 hhcurveto
          -70 -65 -48 -79 -14 hvcurveto
          hintmask 10111100
          95 -605 102 callsubr
        </CharString>
        <CharString name="Atilde">
          102 callgsubr
          73 -37 callsubr
          -42 744 hintmask 10100101
          -24 callgsubr
          hintmask 01110001
          223 callsubr
          -228 643 rmoveto
          98 hlineto
          hintmask 10100011
          175 callsubr
          hintmask 10100101
          -7 callsubr
          hintmask 10101001
          175 callgsubr
          hintmask 10100011
          282 callsubr
          hintmask 01110001
          -76 -62 -45 -117 -40 hvcurveto
          hintmask 10100101
          205 -494 102 callsubr
        </CharString>
        <CharString name="B">
          16 0 157 129 138 125 156 hstemhm
          429 198 -167 210 hintmask 11110000
          429 220 rmoveto
          -43 -8 -29 -20 -48 hhcurveto
          -114 hlineto
          22 129 rlineto
          113 hlineto
          48 23 -23 -43 -7 hvcurveto
          hintmask 11101000
          31 266 rmoveto
          -41 -7 -29 -21 -48 hhcurveto
          -99 hlineto
          22 125 rlineto
          99 hlineto
          48 21 -21 -42 -7 hvcurveto
          164 -294 rmoveto
          hintmask 11110000
          15 80 -39 71 -81 19 72 19 61 56 15 85 rrcurveto
          hintmask 11101000
          117 20 -76 66 -143 hhcurveto
          -338 535 callgsubr
          349 hlineto
          152 98 73 119 20 hvcurveto
          endchar
        </CharString>
        <CharString name="C">
          -73 callsubr
          endchar
        </CharString>
        <CharString name="CR">
          -454 endchar
        </CharString>
        <CharString name="Cacute">
          -73 callsubr
          312 525 -68 callsubr
          endchar
        </CharString>
        <CharString name="Ccaron">
          -73 callsubr
          439 514 -56 callsubr
        </CharString>
        <CharString name="Ccedilla">
          103 646 callsubr
          -92 305 -157 -21 23 -21 450 262 582 callgsubr
          37 202 hintmask 11001011
          44 354 rmoveto
          hintmask 11010011
          -34 -193 91 -140 178 -23 213 callsubr
          hintmask 11001011
          7 37 rlineto
          hintmask 10100011
          147 21 119 96 56 140 rrcurveto
          -212 hlineto
          -52 -34 -52 -29 -58 hhcurveto
          -90 -47 70 108 19 hvcurveto
          108 19 71 69 90 hhcurveto
          hintmask 11001101
          58 42 -29 -52 16 hvcurveto
          211 hlineto
          hintmask 11001011
          160 -6 -109 102 -177 hhcurveto
          -212 -165 -148 -210 -37 hvcurveto
          endchar
        </CharString>
        <CharString name="Cdotaccent">
          -73 callsubr
          419 413 -61 callsubr
        </CharString>
        <CharString name="D">
          71 callgsubr
          endchar
        </CharString>
        <CharString name="Dcaron">
          71 callgsubr
          161 696 -56 callsubr
        </CharString>
        <CharString name="Dcroat">
          25 callsubr
        </CharString>
        <CharString name="E">
          297 callsubr
          hstem
          5 576 vstem
          -90 callsubr
          endchar
        </CharString>
        <CharString name="Eacute">
          297 callsubr
          hstem
          5 576 vstem
          -90 callsubr
          -300 329 -68 callsubr
          endchar
        </CharString>
        <CharString name="Ebreve">
          297 callsubr
          44 339 callsubr
          5 576 hintmask 11110100
          -90 callsubr
          17 387 rmoveto
          hintmask 11101100
          314 callgsubr
          hintmask 11110100
          209 callgsubr
          hintmask 11101100
          34 callsubr
          hintmask 11110100
          10 callsubr
          endchar
        </CharString>
        <CharString name="Ecaron">
          297 callsubr
          hstem
          5 576 vstem
          -90 callsubr
          -173 318 -56 callsubr
        </CharString>
        <CharString name="Ecircumflex">
          297 callsubr
          hstem
          5 576 vstem
          -90 callsubr
          -13 321 -55 callgsubr
          endchar
        </CharString>
        <CharString name="Edieresis">
          297 callsubr
          62 160 hstemhm
          5 576 -392 365 callsubr
          hintmask 11101000
          -90 callsubr
          hintmask 11110110
          -298 217 -88 callgsubr
          endchar
        </CharString>
        <CharString name="Edotaccent">
          297 callsubr
          hstem
          5 576 vstem
          -90 callsubr
          -192 217 -61 callsubr
        </CharString>
        <CharString name="Egrave">
          297 callsubr
          hstem
          5 576 vstem
          -90 callsubr
          -306 294 -15 callsubr
          endchar
        </CharString>
        <CharString name="Emacron">
          297 callsubr
          67 132 hstem
          5 590 vstem
          -90 callsubr
          -398 222 35 callgsubr
          endchar
        </CharString>
        <CharString name="Eogonek">
          -107 -220 106 114 85 callgsubr
          hstem
          5 576 vstem
          581 705 rmoveto
          -451 535 callgsubr
          249 hlineto
          -45 -33 -19 -33 -7 -37 rrcurveto
          132 callgsubr
          -20 callgsubr
          16 callgsubr
          27 149 rlineto
          -225 hlineto
          20 117 rlineto
          255 hlineto
          endchar
        </CharString>
        <CharString name="Eth">
          25 callsubr
        </CharString>
        <CharString name="Euro">
          138 -5 181 64 17 -17 94 42 95 -21 262 582 callgsubr
          9 784 hintmask 10101010
          87 354 rmoveto
          -1 -7 -1 -6 -1 -7 rrcurveto
          -58 hlineto
          -17 -94 rlineto
          73 hlineto
          -148 15 106 -97 171 hhcurveto
          hintmask 11001010
          177 145 102 160 63 hvcurveto
          -211 hlineto
          -52 -35 -52 -29 -58 hhcurveto
          hintmask 10110110
          -51 -38 23 41 -19 hvcurveto
          148 hlineto
          17 94 rlineto
          -177 hlineto
          1 7 1 6 1 7 1 8 2 7 2 7 rrcurveto
          177 hlineto
          16 95 rlineto
          -146 hlineto
          38 33 44 22 51 hhcurveto
          hintmask 10101010
          58 42 -29 -52 16 hvcurveto
          211 hlineto
          160 -6 -110 102 -176 hhcurveto
          hintmask 10110010
          -171 -139 -95 -146 -68 hvcurveto
          -73 hlineto
          -16 -95 rlineto
          57 hlineto
          hintmask 10101010
          -1 -7 -2 -8 -1 -7 rrcurveto
          endchar
        </CharString>
        <CharString name="F">
          -94 21 -21 276 149 124 156 hstem
          5 603 vstem
          5 hmoveto
          197 hlineto
          49 276 rlineto
          207 hlineto
          26 149 rlineto
          -207 hlineto
          22 124 rlineto
          282 hlineto
          452 callsubr
          -478 hlineto
          endchar
        </CharString>
        <CharString name="G">
          22 callgsubr
          endchar
        </CharString>
        <CharString name="Gbreve">
          102 -5 298 callsubr
          37 339 callsubr
          37 201 hintmask 11100010
          44 354 1 callsubr
          hintmask 11010010
          108 19 73 69 98 hhcurveto
          hintmask 11100010
          74 callgsubr
          hintmask 11101010
          629 583 rmoveto
          hintmask 11100110
          314 callgsubr
          hintmask 11101010
          209 callgsubr
          hintmask 11100110
          34 callsubr
          hintmask 11101010
          10 callsubr
          endchar
        </CharString>
        <CharString name="Gdotaccent">
          22 callgsubr
          419 413 -61 callsubr
        </CharString>
        <CharString name="H">
          88 0 439 -156 422 hstemhm
          5 756 hintmask 10100000
          440 hmoveto
          197 hlineto
          hintmask 01100000
          293 callgsubr
          -196 hlineto
          hintmask 10100000
          -47 -266 rlineto
          -239 hlineto
          hintmask 01100000
          47 266 -12 callsubr
          hintmask 10100000
          99 callgsubr
          hintmask 01100000
          50 283 rlineto
          238 hlineto
          endchar
        </CharString>
        <CharString name="I">
          640 callgsubr
          hstem
          5 321 vstem
          57 callsubr
          endchar
        </CharString>
        <CharString name="Iacute">
          640 callgsubr
          hstem
          5 397 vstem
          57 callsubr
          2 174 -68 callsubr
          endchar
        </CharString>
        <CharString name="Icircumflex">
          640 callgsubr
          hstem
          5 413 vstem
          57 callsubr
          288 166 -55 callgsubr
          endchar
        </CharString>
        <CharString name="Idieresis">
          640 callgsubr
          82 160 hstemhm
          5 436 -375 365 callsubr
          hintmask 11110000
          57 callsubr
          hintmask 11101100
          3 62 -88 callgsubr
          endchar
        </CharString>
        <CharString name="Idotaccent">
          640 callgsubr
          hstem
          5 329 vstem
          57 callsubr
          109 62 -61 callsubr
        </CharString>
        <CharString name="Igrave">
          640 callgsubr
          hstem
          5 377 vstem
          57 callsubr
          -4 139 -15 callsubr
          endchar
        </CharString>
        <CharString name="Imacron">
          640 callgsubr
          87 132 hstem
          5 467 vstem
          57 callsubr
          -97 67 35 callgsubr
          endchar
        </CharString>
        <CharString name="Iogonek">
          -347 -220 106 819 -20 hstem
          -74 400 vstem
          170 -204 rmoveto
          -20 callgsubr
          293 callgsubr
          -196 hlineto
          -124 -700 -51 -35 481 callsubr
          endchar
        </CharString>
        <CharString name="Itilde">
          -347 408 callgsubr
          5 474 hintmask 11001010
          57 callsubr
          hintmask 11100010
          -109 53 -16 callsubr
        </CharString>
        <CharString name="J">
          -71 -7 177 -177 260 452 -20 hstemhm
          6 198 hintmask 10110000
          319 238 rmoveto
          -49 -10 -23 -19 -33 hhcurveto
          hintmask 01110000
          -37 -20 22 61 11 hvcurveto
          -195 hlineto
          -172 -30 92 -88 156 hhcurveto
          147 109 83 162 29 hvcurveto
          82 467 -12 callsubr
          endchar
        </CharString>
        <CharString name="K">
          71 148 callgsubr
          hstem
          5 766 vstem
          423 hmoveto
          212 callsubr
        </CharString>
        <CharString name="L">
          -164 0 531 callsubr
          5 443 vstem
          130 705 rmoveto
          100 callgsubr
          endchar
        </CharString>
        <CharString name="Lacute">
          -164 0 531 callsubr
          5 471 vstem
          130 705 rmoveto
          100 callgsubr
          -120 174 -68 callsubr
          endchar
        </CharString>
        <CharString name="Lcaron">
          -105 0 149 265 73 84 134 hstem
          468.5 538 callsubr
          vstem
          426 705 rmoveto
          -24 -134 rlineto
          68 hlineto
          -3 -14 rlineto
          -48 -8 -24 -22 -33 hhcurveto
          -13 -73 rlineto
          104 60 71 94 16 hvcurveto
          8 39 1 43 -8 44 rrcurveto
          -440 hmoveto
          100 callgsubr
          endchar
        </CharString>
        <CharString name="Ldot">
          -164 0 531 callsubr
          5 443 vstem
          130 705 rmoveto
          100 callgsubr
          -13 62 -61 callsubr
        </CharString>
        <CharString name="Lslash">
          -152 0 531 callsubr
          0 462 vstem
          144 705 rmoveto
          -47 -267 -64 -17 -33 -190 63 17 -44 -248 rlineto
          416 539 callsubr
          -219 hlineto
          27 156 83 22 33 190 -82 -22 37 210 rlineto
          endchar
        </CharString>
        <CharString name="M">
          280 148 callgsubr
          hstem
          5 948 vstem
          5 hmoveto
          197 hlineto
          69 392 64 -392 rlineto
          164 hlineto
          203 390 -69 -390 rlineto
          195 hlineto
          125 705 rlineto
          -236 hlineto
          -253 -457 -97 457 rlineto
          -237 hlineto
          endchar
        </CharString>
        <CharString name="N">
          110 148 callgsubr
          hstem
          5 778 vstem
          587 705 3 callsubr
          endchar
        </CharString>
        <CharString name="NULL">
          -655 endchar
        </CharString>
        <CharString name="Nacute">
          110 148 callgsubr
          hstem
          5 778 vstem
          587 705 3 callsubr
          -424 174 -68 callsubr
          endchar
        </CharString>
        <CharString name="Ncaron">
          110 148 callgsubr
          hstem
          5 778 vstem
          587 705 3 callsubr
          -297 163 -56 callsubr
        </CharString>
        <CharString name="Ntilde">
          110 0 920 -899 348 callsubr
          73 -37 callsubr
          5 778 hintmask 01100101
          587 705 3 callsubr
          hintmask 01110001
          -534 53 135 callsubr
        </CharString>
        <CharString name="O">
          159 callgsubr
          hstem
          261 callgsubr
          vstem
          -99 callsubr
          endchar
        </CharString>
        <CharString name="OE">
          407 -11 181 -170 156 128 148 103 181 -167 156 hstemhm
          43 203 hintmask 01101100
          1068 549 rmoveto
          452 callsubr
          -451 hlineto
          hintmask 10110100
          -9 -53 rlineto
          43 -40 -64 21 -70 hhcurveto
          -198 -175 -149 -214 -38 hvcurveto
          -214 -38 123 -150 198 hhcurveto
          71 2 70 20 55 43 rrcurveto
          hintmask 01101100
          -10 -54 rlineto
          452 hlineto
          16 callgsubr
          249 callgsubr
          -224 hlineto
          20 117 rlineto
          hintmask 10110100
          -368 -14 rmoveto
          100 49 -71 -111 -20 hvcurveto
          -111 -20 -73 -72 -101 hhcurveto
          -102 -48 72 111 21 hvcurveto
          111 19 73 71 102 hhcurveto
          endchar
        </CharString>
        <CharString name="Oacute">
          159 callgsubr
          hstem
          261 callgsubr
          vstem
          -99 callsubr
          130 569 -68 callsubr
          endchar
        </CharString>
        <CharString name="Ocircumflex">
          159 callgsubr
          hstem
          261 callgsubr
          vstem
          -99 callsubr
          416 561 -55 callgsubr
          endchar
        </CharString>
        <CharString name="Odieresis">
          159 callgsubr
          52 160 hstemhm
          47 194 64 365 callsubr
          -109 194 hintmask 11111010
          -99 callsubr
          131 457 rmoveto
          50 473 callsubr
          -26 27 -41 -50 -45 -42 -54 -37 27 -27 40 hvcurveto
          hintmask 11111100
          405 callgsubr
        </CharString>
        <CharString name="Ograve">
          159 callgsubr
          hstem
          261 callgsubr
          vstem
          -99 callsubr
          124 534 -15 callsubr
          endchar
        </CharString>
        <CharString name="Ohungarumlaut">
          159 callgsubr
          33 227 hstem
          261 callgsubr
          vstem
          -99 callsubr
          404 665 44 callsubr
        </CharString>
        <CharString name="Omacron">
          159 callgsubr
          57 132 hstem
          261 callgsubr
          vstem
          -99 callsubr
          31 462 35 callgsubr
          endchar
        </CharString>
        <CharString name="Oslash">
          132 -7 182 -153 -21 534 181 -8 -20 hstemhm
          46 194 330 194 hintmask 10101100
          764 423 rmoveto
          66 -17 57 -30 47 vhcurveto
          hintmask 10011100
          124 115 rlineto
          -109 hlineto
          hintmask 01101100
          -64 -60 rlineto
          44 -52 -70 24 -84 hhcurveto
          -246 -170 -175 -253 -66 17 -59 31 -46 hvcurveto
          -125 -116 rlineto
          111 hlineto
          hintmask 10101100
          64 59 rlineto
          -43 51 68 -24 82 hhcurveto
          249 170 179 251 hvcurveto
          -524 -112 rmoveto
          120 75 104 122 34 28 -8 -15 21 vhcurveto
          -273 -253 rlineto
          -5 15 -2 18 19 vvcurveto
          135 -136 rmoveto
          -34 -28 8 15 -21 hvcurveto
          271 252 rlineto
          5 -15 2 -17 -18 vvcurveto
          -119 -73 -106 -122 vhcurveto
          endchar
        </CharString>
        <CharString name="Otilde">
          159 callgsubr
          43 -37 callsubr
          261 callgsubr
          hintmask 11001011
          -99 callsubr
          hintmask 11100011
          19 448 rmoveto
          98 hlineto
          hintmask 11000111
          175 callsubr
          hintmask 11001011
          -7 callsubr
          hintmask 11010011
          175 callgsubr
          hintmask 11000111
          282 callsubr
          hintmask 11100011
          96 callsubr
        </CharString>
        <CharString name="P">
          -19 21 -21 238 155 155 157 hstem
          446 204 vstem
          272 393 rmoveto
          27 155 rlineto
          78 hlineto
          59 18 -31 -47 -8 hvcurveto
          -46 -8 -29 -31 -59 hhcurveto
          295 77 rmoveto
          136 24 -71 99 -175 hhcurveto
          -293 hlineto
          99 callgsubr
          42 238 rlineto
          97 hlineto
          179 104 109 123 21 hvcurveto
          endchar
        </CharString>
        <CharString name="Q">
          133 -118 293 -182 182 360 181 hstemhm
          261 callgsubr
          hintmask 01111000
          241 311 rmoveto
          120 75 104 122 86 47 -51 -84 -119 -73 -106 -122 -88 -47 53 83 vhcurveto
          524 112 rmoveto
          175 -117 118 -185 -246 -170 -175 -253 -175 118 -120 181 23 22 1 3 21 vhcurveto
          hintmask 10111000
          56 -115 rlineto
          234 hlineto
          -111 183 rlineto
          hintmask 01111000
          109 75 65 127 156 vvcurveto
          endchar
        </CharString>
        <CharString name="R">
          -38 callgsubr
          endchar
        </CharString>
        <CharString name="Racute">
          -38 callgsubr
          -139 174 -68 callsubr
          endchar
        </CharString>
        <CharString name="Rcaron">
          -38 callgsubr
          -13 163 -56 callsubr
        </CharString>
        <CharString name="S">
          -55 callsubr
          endchar
        </CharString>
        <CharString name="Sacute">
          -55 callsubr
          -276 665 -68 callsubr
          endchar
        </CharString>
        <CharString name="Scaron">
          -55 callsubr
          -150 654 -56 callsubr
        </CharString>
        <CharString name="T">
          -51 21 -21 549 156 hstem
          63 598 vstem
          63 549 178 callgsubr
          endchar
        </CharString>
        <CharString name="Tcaron">
          -51 21 -21 549 156 hstem
          63 598 vstem
          63 549 178 callgsubr
          310 163 -56 callsubr
        </CharString>
        <CharString name="Thorn">
          -19 21 -21 129 147 155 149 -149 274 hstemhm
          5 624 hintmask 11011000
          251 276 rmoveto
          27 155 rlineto
          78 hlineto
          59 19 -31 -47 -8 hvcurveto
          -46 -9 -29 -31 -60 hhcurveto
          297 77 rmoveto
          hintmask 11101000
          132 23 -72 95 -174 hhcurveto
          -99 hlineto
          hintmask 11011000
          22 125 rlineto
          -195 hlineto
          99 callgsubr
          23 129 rlineto
          97 hlineto
          178 104 105 119 21 hvcurveto
          endchar
        </CharString>
        <CharString name="U">
          224 callsubr
          hstem
          48 200 vstem
          -95 callsubr
          endchar
        </CharString>
        <CharString name="Uacute">
          224 callsubr
          hstem
          48 200 vstem
          -95 callsubr
          207 174 -68 callsubr
          endchar
        </CharString>
        <CharString name="Ubreve">
          224 callsubr
          64 339 callsubr
          48 200 hintmask 11101000
          -95 callsubr
          523 232 rmoveto
          hintmask 11011000
          314 callgsubr
          hintmask 11101000
          209 callgsubr
          hintmask 11011000
          34 callsubr
          hintmask 11101000
          10 callsubr
          endchar
        </CharString>
        <CharString name="Ucircumflex">
          224 callsubr
          hstem
          48 200 vstem
          -95 callsubr
          493 166 -55 callgsubr
          endchar
        </CharString>
        <CharString name="Udieresis">
          224 callsubr
          82 160 hstemhm
          48 200 20 365 callsubr
          hintmask 11110000
          -95 callsubr
          hintmask 11111100
          208 62 -88 callgsubr
          endchar
        </CharString>
        <CharString name="Ugrave">
          224 callsubr
          hstem
          48 200 vstem
          -95 callsubr
          201 139 -15 callsubr
          endchar
        </CharString>
        <CharString name="Uhungarumlaut">
          224 callsubr
          63 227 hstem
          48 200 vstem
          -95 callsubr
          481 270 44 callsubr
        </CharString>
        <CharString name="Umacron">
          224 callsubr
          87 132 hstem
          48 200 vstem
          -95 callsubr
          108 67 35 callgsubr
          endchar
        </CharString>
        <CharString name="Uogonek">
          57 -218 106 -106 396 -396 923 0 -20 hstemhm
          48 200 hintmask 10011000
          55 296 rmoveto
          -28 -156 62 -97 109 -35 -52 -35 -21 -35 -7 -39 rrcurveto
          hintmask 00101000
          132 callgsubr
          hintmask 10011000
          -20 callgsubr
          133 29 107 96 30 169 72 409 rcurveline
          -196 hlineto
          -72 -409 rlineto
          hintmask 01011000
          -72 -13 -43 -46 -74 hhcurveto
          -74 -24 46 72 13 hvcurveto
          71 409 rlineto
          -195 hlineto
          endchar
        </CharString>
        <CharString name="Uring">
          224 callsubr
          58 79 96 78 hstem
          48 200 259 82 vstem
          -95 callsubr
          206 164 -18 callsubr
          endchar
        </CharString>
        <CharString name="Utilde">
          224 callsubr
          73 -37 callsubr
          48 200 hintmask 11001010
          -95 callsubr
          hintmask 11100010
          96 53 -16 callsubr
        </CharString>
        <CharString name="V">
          92 148 callgsubr
          hstem
          79 737 vstem
          198 hmoveto
          250 hlineto
          368 705 615 callgsubr
          -249 -508 -70 508 615 callgsubr
          endchar
        </CharString>
        <CharString name="W">
          -47 callgsubr
          endchar
        </CharString>
        <CharString name="Wacute">
          -47 callgsubr
          403 172 -68 callsubr
          endchar
        </CharString>
        <CharString name="Wcircumflex">
          -47 callgsubr
          674 164 -55 callgsubr
          endchar
        </CharString>
        <CharString name="Wdieresis">
          421 0 925 -904 348 callsubr
          80 160 hstemhm
          101 1022 -700 162 -10.5 158 -97.5 163 hintmask 01111000
          147 hmoveto
          241 hlineto
          hintmask 01110010
          176 433 21 -433 rlineto
          241 hlineto
          297 705 rlineto
          -212 hlineto
          -167 -480 -23 480 rlineto
          -215 hlineto
          -195 -482 2 482 rlineto
          -212 hlineto
          hintmask 01110101
          389 60 rmoveto
          50 473 callsubr
          -26 27 -41 -50 -45 -42 -54 -37 27 -27 40 hvcurveto
          212 hmoveto
          hintmask 10000001
          -14 callgsubr
          hvcurveto
          hintmask 01110101
          474 callgsubr
          vhcurveto
          endchar
        </CharString>
        <CharString name="Wgrave">
          -47 callgsubr
          376 136 -15 callsubr
          endchar
        </CharString>
        <CharString name="X">
          84 148 callgsubr
          hstem
          -31 818 vstem
          446 hmoveto
          231 hlineto
          -178 349 288 356 rlineto
          -223 hlineto
          -148 -194 -99 194 rlineto
          -231 hlineto
          176 -344 -293 -361 rlineto
          223 hlineto
          153 199 rlineto
          endchar
        </CharString>
        <CharString name="Y">
          46 148 callgsubr
          hstem
          78 693 vstem
          -25 callsubr
          endchar
        </CharString>
        <CharString name="Yacute">
          46 148 callgsubr
          hstem
          78 693 vstem
          -25 callsubr
          250 174 -68 callsubr
          endchar
        </CharString>
        <CharString name="Ycircumflex">
          46 148 callgsubr
          hstem
          78 693 vstem
          -25 callsubr
          537 166 -55 callgsubr
          endchar
        </CharString>
        <CharString name="Ydieresis">
          46 148 callgsubr
          82 160 hstemhm
          78 693 -508 365 callsubr
          hintmask 11110000
          -25 callsubr
          hintmask 11101100
          252 62 -88 callgsubr
          endchar
        </CharString>
        <CharString name="Ygrave">
          46 148 callgsubr
          hstem
          78 693 vstem
          -25 callsubr
          244 139 -15 callsubr
          endchar
        </CharString>
        <CharString name="Z">
          -12 callgsubr
          endchar
        </CharString>
        <CharString name="Zacute">
          -12 callgsubr
          -327 323 -68 callsubr
          endchar
        </CharString>
        <CharString name="Zcaron">
          -12 callgsubr
          -201 312 -56 callsubr
        </CharString>
        <CharString name="Zdotaccent">
          -12 callgsubr
          -220 211 -61 callsubr
        </CharString>
        <CharString name="a">
          -81 callgsubr
          endchar
        </CharString>
        <CharString name="a.ss02">
          -16 callgsubr
          232 callgsubr
          hintmask 00100111
          335 hmoveto
          -77 callgsubr
        </CharString>
        <CharString name="aacute">
          -81 callgsubr
          -131 451 -68 callsubr
          endchar
        </CharString>
        <CharString name="aacute.ss02">
          -16 callgsubr
          232 callgsubr
          hintmask 00100111
          296 562 callgsubr
          -231 -845 rmoveto
          -77 callgsubr
        </CharString>
        <CharString name="abreve">
          76 callgsubr
          -7 -20 61 339 callsubr
          17 203 hintmask 10101010
          -17 callgsubr
          hintmask 01011010
          -14 -78 rlineto
          12 callsubr
          hintmask 01101010
          133 callsubr
          hintmask 10101010
          58 callgsubr
          hintmask 01101010
          -67 callsubr
          hintmask 10101010
          134 callsubr
          hintmask 01011010
          186 509 rmoveto
          hintmask 01010110
          314 callgsubr
          hintmask 01011010
          209 callgsubr
          hintmask 01010110
          34 callsubr
          hintmask 01011010
          10 callsubr
          endchar
        </CharString>
        <CharString name="abreve.ss02">
          -16 callgsubr
          31 142 -142 206 232 callgsubr
          hintmask 0010011011000000
          613 790 rmoveto
          hintmask 0010010111000000
          314 callgsubr
          hintmask 0010011011000000
          209 callgsubr
          hintmask 0010010111000000
          34 callsubr
          hintmask 0010011011000000
          10 callsubr
          -278 -790 364 callsubr
          hintmask 0010101011000000
          -9 callsubr
          hintmask 0010011011000000
          -52 callsubr
          hvcurveto
          hintmask 1000011011000000
          124 callgsubr
          hintmask 0101011011000000
          -34 callsubr
        </CharString>
        <CharString name="acircumflex">
          -81 callgsubr
          156 443 -55 callgsubr
          endchar
        </CharString>
        <CharString name="acircumflex.ss02">
          -16 callgsubr
          232 callgsubr
          hintmask 00100111
          583 724 -55 callgsubr
          -225 -593 rmoveto
          -77 callgsubr
        </CharString>
        <CharString name="acute">
          -385 599 246 hstem
          65 294 vstem
          89 562 callgsubr
          endchar
        </CharString>
        <CharString name="adieresis">
          25 -7 171 -164 164 -164 780 -383 171 -7 -20 79 160 366 callgsubr
          11 365 callsubr
          hintmask 1001011000000000
          -17 callgsubr
          hintmask 0100111000000000
          -14 -78 rlineto
          12 callsubr
          hintmask 0101011000000000
          133 callsubr
          hintmask 1001011000000000
          58 callgsubr
          hintmask 0101011000000000
          -67 callsubr
          hintmask 1001011000000000
          134 callsubr
          hintmask 0100111110000000
          -129 339 rmoveto
          50 473 callsubr
          -26 27 -41 -50 -45 -42 -54 -37 27 -27 40 hvcurveto
          212 hmoveto
          hintmask 0010001010000000
          -14 callgsubr
          hvcurveto
          hintmask 0100111110000000
          474 callgsubr
          vhcurveto
          endchar
        </CharString>
        <CharString name="adieresis.ss02">
          -16 callgsubr
          49 160 649 callgsubr
          26 162 0 200 -150 163 hintmask 0010011110100000
          298 620 -88 callgsubr
          -175 -620 rmoveto
          hintmask 0010011101000000
          57 callgsubr
          hintmask 0010101101000000
          -9 callsubr
          hintmask 0010011101000000
          -52 callsubr
          hvcurveto
          hintmask 1000011101000000
          124 callgsubr
          hintmask 0101011101000000
          -34 callsubr
        </CharString>
        <CharString name="ae">
          406 -54 callgsubr
          endchar
        </CharString>
        <CharString name="agrave">
          -81 callgsubr
          -137 416 -15 callsubr
          endchar
        </CharString>
        <CharString name="agrave.ss02">
          -16 callgsubr
          232 callgsubr
          hintmask 00100111
          290 697 -15 callsubr
          19 -845 rmoveto
          -77 callgsubr
        </CharString>
        <CharString name="amacron">
          76 callgsubr
          -7 -20 84 132 366 callgsubr
          hintmask 10101100
          -17 callgsubr
          hintmask 01011100
          -14 -78 rlineto
          12 callsubr
          hintmask 01101100
          133 callsubr
          hintmask 10101100
          58 callgsubr
          hintmask 01101100
          -67 callsubr
          hintmask 10101100
          134 callsubr
          hintmask 01011100
          -229 344 35 callgsubr
          endchar
        </CharString>
        <CharString name="amacron.ss02">
          -16 callgsubr
          54 132 232 callgsubr
          hintmask 0010011110000000
          198 625 35 callgsubr
          114 -757 364 callsubr
          hintmask 0010101110000000
          -9 callsubr
          hintmask 0010011110000000
          -52 callsubr
          hvcurveto
          hintmask 1000011110000000
          124 callgsubr
          hintmask 0101011110000000
          -34 callsubr
        </CharString>
        <CharString name="ampersand">
          167 -11 157 -146 365 165 181 -136 136 hstemhm
          10 202 -50 186 93 184 hintmask 01101010
          622 530 rmoveto
          2 11 1 10 9 vvcurveto
          83 -66 68 -135 vhcurveto
          hintmask 01100110
          -150 -112 -84 -129 -31 9 -29 21 -32 hvcurveto
          hintmask 10101010
          -105 -48 -77 -82 -106 vvcurveto
          -110 94 -71 153 89 78 22 43 71 vhcurveto
          hintmask 01010110
          47 -54 rlineto
          222 hlineto
          -140 164 37 42 35 48 33 55 rlinecurve
          38 56 rlineto
          -194 hlineto
          -25 -36 -9 -15 -9 -15 -9 -13 rlinecurve
          -138 161 rlineto
          -24 29 -11 24 23 vvcurveto
          32 25 20 29 21 18 -12 -23 -3 0 -3 -1 -4 vhcurveto
          hintmask 10101010
          -142 -384 rmoveto
          -57 -29 28 35 34 24 34 43 24 hvcurveto
          116 -133 rlineto
          -14 -30 -32 -8 -35 hhcurveto
          endchar
        </CharString>
        <CharString name="ampersand.ss03">
          36 -7 162 -134 -21 480 241 -163 163 hstemhm
          11 173 -1 186 -186 442 -188 188 hintmask 01100101
          187 545 rmoveto
          -8 -44 3 -39 21 -39 -90 -21 -78 -78 -20 -110 rrcurveto
          hintmask 10101001
          -120 -21 65 -101 149 hhcurveto
          81 67 32 44 47 hvcurveto
          hintmask 01010101
          38 -69 rlineto
          201 hlineto
          -258 471 -14 26 -5 13 4 16 rlinecurve
          19 3 15 13 19 hhcurveto
          23 10 -14 -24 -2 hvcurveto
          hintmask 01100101
          -11 -3 -15 -4 -14 vhcurveto
          hintmask 01100010
          184 hlineto
          9 33 5 37 -6 33 rrcurveto
          74 -8 -51 64 -131 hhcurveto
          hintmask 01100101
          -141 -89 -86 -90 -15 hvcurveto
          hintmask 10101001
          -3 -326 rmoveto
          37 7 32 26 38 hhcurveto
          38 24 -26 -37 -7 hvcurveto
          -37 -6 -33 -27 -38 hhcurveto
          -39 -22 27 37 6 hvcurveto
          endchar
        </CharString>
        <CharString name="aogonek">
          25 -220 106 107 171 533 callgsubr
          366 callgsubr
          hintmask 11101000
          -17 callgsubr
          -13 -73 -51 -35 -21 -34 -7 -39 564 callsubr
          -20 callgsubr
          hintmask 11011000
          99 561 -12 callsubr
          hintmask 11101000
          133 callsubr
          215 callgsubr
        </CharString>
        <CharString name="aogonek.ss02">
          -18 -220 106 103 141 98 100 28 215 -158 158 232 callgsubr
          hintmask 10100110
          499 -204 rmoveto
          -20 callgsubr
          58 328 rlineto
          3 19 1 15 16 vvcurveto
          hintmask 10110110
          -9 callsubr
          hintmask 11101110
          -52 callsubr
          -91 65 -49 87 78 82 34 54 36 hvcurveto
          -12 -72 -51 -35 -21 -34 -7 -39 rlinecurve
          377 callsubr
          hintmask 10100110
          38 37 6 10 33 hvcurveto
          hintmask 11100110
          -294 374 rmoveto
          31 30 27 48 vhcurveto
          90 -2 hlineto
          -56 -11 -56 -40 -50 hhcurveto
          -32 -19 15 25 hvcurveto
          endchar
        </CharString>
        <CharString name="apostrophemod.ss01">
          -399 485 callsubr
          vstem
          146 858 rmoveto
          115 callsubr
        </CharString>
        <CharString name="approxequal">
          19 95 361 callgsubr
          22 361 callgsubr
          hstemhm
          8 669 hintmask 1000010010000000
          8 95 rmoveto
          144 hlineto
          hintmask 0001010010000000
          544 callsubr
          hintmask 0010010010000000
          430 callgsubr
          hintmask 0001010010000000
          -58 -40 66 -92 hhcurveto
          hintmask 1000010010000000
          643 callgsubr
          hintmask 0100100010000000
          263 vmoveto
          144 hlineto
          hintmask 0100000110000000
          544 callsubr
          hintmask 0100001010000000
          430 callgsubr
          hintmask 0100000110000000
          -58 -40 66 -92 hhcurveto
          hintmask 0100100010000000
          643 callgsubr
          endchar
        </CharString>
        <CharString name="aring">
          76 callgsubr
          -7 -20 55 79 96 78 366 callgsubr
          250 82 hintmask 10101111
          -17 callgsubr
          hintmask 01011111
          -14 -78 rlineto
          12 callsubr
          hintmask 01101111
          133 callsubr
          hintmask 10101111
          58 callgsubr
          hintmask 01101111
          -67 callsubr
          hintmask 10101111
          134 callsubr
          hintmask 01011111
          -131 441 -18 callsubr
          endchar
        </CharString>
        <CharString name="aring.ss02">
          -16 callgsubr
          25 79 96 78 232 callgsubr
          -123 82 hintmask 0010001110100000
          296 722 -18 callsubr
          -135 -723 rmoveto
          hintmask 0010001111000000
          57 callgsubr
          hintmask 0010101111000000
          -9 callsubr
          hintmask 0010011111000000
          -52 callsubr
          hvcurveto
          hintmask 1000001110100000
          124 callgsubr
          hintmask 0101001110100000
          -34 callsubr
        </CharString>
        <CharString name="asciicircum">
          78 163 544 hstem
          6 679 vstem
          489 163 rmoveto
          196 hlineto
          -147 544 rlineto
          -192 hlineto
          -340 -544 322 callgsubr
          201 320 rlineto
          endchar
        </CharString>
        <CharString name="asciitilde">
          19 194 361 callgsubr
          hstemhm
          8 669 hintmask 10001000
          8 194 rmoveto
          144 hlineto
          hintmask 00011000
          48 17 22 20 35 hhcurveto
          hintmask 01001000
          59 40 -66 92 hhcurveto
          hintmask 00101000
          107 96 69 171 57 hvcurveto
          -147 hlineto
          hintmask 01001000
          -48 -15 -23 -19 -35 hhcurveto
          hintmask 00011000
          -58 -40 66 -92 hhcurveto
          hintmask 10001000
          643 callgsubr
          endchar
        </CharString>
        <CharString name="asterisk">
          -107 360 382 hstem
          120 409 vstem
          423 742 rmoveto
          -131 hlineto
          7 -125 -83 84 -81 -111 108 -36 -123 -40 47 -119 107 89 -47 -124 rlineto
          128 hlineto
          -5 124 78 -87 88 116 -111 38 124 40 -42 111 -114 -85 rlineto
          endchar
        </CharString>
        <CharString name="at">
          438 -235 133 95 138 -136 127 174 131 -131 137 114 130 hstemhm
          62 145 84 166 141 148 125 147 hintmask 1010111111000000
          754 -5 rmoveto
          172 92 147 172 215 -156 148 -243 -316 -241 -227 -315 -225 154 -145 235 83 77 15 29 67 hvcurveto
          -32 124 rlineto
          -22 -50 -63 -13 -69 hhcurveto
          -162 -95 96 155 220 169 178 226 168 101 -93 -146 -92 -27 -94 -63 -34 -6 27 42 8 hvcurveto
          hintmask 1011011111000000
          41 236 rlineto
          -155 hlineto
          hintmask 1100111111000000
          -9 -55 rlineto
          38 -17 -37 23 -56 hhcurveto
          -133 -92 -133 -144 -103 59 -60 98 70 59 29 52 35 hvcurveto
          hintmask 1010111111000000
          -50 20 49 -29 73 hhcurveto
          -156 237 rmoveto
          hintmask 1100111111000000
          -57 -41 -44 -45 -35 -20 24 37 57 37 47 47 vhcurveto
          hintmask 1010111111000000
          35 22 -26 -38 hvcurveto
          endchar
        </CharString>
        <CharString name="atilde">
          76 callgsubr
          -7 -20 70 -37 callsubr
          17 203 hintmask 1010001010000000
          -17 callgsubr
          hintmask 0101001010000000
          -14 -78 rlineto
          12 callsubr
          hintmask 0110001010000000
          133 callsubr
          hintmask 1010001010000000
          58 callgsubr
          hintmask 0110001010000000
          -67 callsubr
          hintmask 1010001010000000
          134 callsubr
          hintmask 0101100010000000
          -242 330 rmoveto
          98 hlineto
          hintmask 0101000110000000
          175 callsubr
          hintmask 0101001010000000
          -7 callsubr
          hintmask 0101010010000000
          175 callgsubr
          hintmask 0101000110000000
          282 callsubr
          hintmask 0101100010000000
          96 callsubr
        </CharString>
        <CharString name="atilde.ss02">
          -16 callgsubr
          40 -37 callsubr
          0 205 188 200 hintmask 0010011000110000
          186 611 rmoveto
          98 hlineto
          hintmask 0010010001110000
          175 callsubr
          hintmask 0010010010110000
          -7 callsubr
          hintmask 0010010100110000
          175 callgsubr
          hintmask 0010010001110000
          282 callsubr
          hintmask 0010011000110000
          -76 -62 -45 -117 -40 hvcurveto
          hintmask 0010010010110000
          149 -611 364 callsubr
          hintmask 0010100010110000
          -9 callsubr
          hintmask 0010010010110000
          -52 callsubr
          hvcurveto
          hintmask 1000010010110000
          124 callgsubr
          hintmask 0101010010110000
          -34 callsubr
        </CharString>
        <CharString name="b">
          25 -7 171 -143 -21 397 171 172 -20 hstemhm
          458 203 hintmask 01111000
          287 483 rmoveto
          46 257 rlineto
          -197 425 callgsubr
          197 hlineto
          hintmask 10111000
          14 78 rlineto
          -51 20 50 -34 593 callsubr
          179 31 -86 108 -134 hhcurveto
          hintmask 01111000
          -78 -63 -34 -51 -38 hvcurveto
          168 -202 rmoveto
          hintmask 10111000
          461 callgsubr
          hintmask 01111000
          55 40 -40 -76 -14 hvcurveto
          endchar
        </CharString>
        <CharString name="backslash">
          -77 -193 1145 hstem
          190 231 vstem
          379 952 rmoveto
          -189 hlineto
          43 -1145 rlineto
          188 hlineto
          endchar
        </CharString>
        <CharString name="bar">
          -378 -137 959 hstem
          -34 365 vstem
          135 822 rmoveto
          -169 -959 322 callgsubr
          169 959 rlineto
          endchar
        </CharString>
        <CharString name="braceleft">
          554 callgsubr
          hstemhm
          88 193 -126 185 hintmask 11101000
          155 208 rmoveto
          hintmask 10110000
          -46 -67 -151 -81 vvcurveto
          -98 69 -53 110 vhcurveto
          74 hlineto
          28 159 rlineto
          -36 hlineto
          -37 -15 14 25 hvcurveto
          hintmask 11101000
          43 59 156 68 vvcurveto
          49 -28 36 -58 12 vhcurveto
          2 vlineto
          76 14 43 53 13 74 11 63 0 96 8 47 rrcurveto
          36 6 20 20 44 hhcurveto
          36 hlineto
          28 159 rlineto
          -74 hlineto
          -125 -96 -69 -125 -22 hvcurveto
          -12 -66 7 -97 -11 -57 -7 -44 -30 -24 -68 -1 -28 -159 rcurveline
          60 -1 22 -21 -33 vvcurveto
          endchar
        </CharString>
        <CharString name="braceright">
          554 callgsubr
          hstem
          231 195 vstem
          441 422 rmoveto
          -68 1 -21 24 8 44 10 56 38 91 14 73 rrcurveto
          125 21 -71 69 -126 hhcurveto
          -74 hlineto
          -27 -159 rlineto
          36 hlineto
          44 12 -20 -36 -6 hvcurveto
          -8 -47 -35 -96 -11 -63 -13 -74 24 -53 71 -14 rrcurveto
          -2 vlineto
          -76 -14 -43 -53 -13 -74 -11 -63 1 -96 -9 -48 rrcurveto
          -35 -6 -20 -20 -43 hhcurveto
          -37 hlineto
          -28 -159 rlineto
          74 hlineto
          126 95 69 125 22 hvcurveto
          13 73 -7 91 10 55 7 42 30 27 69 2 rrcurveto
          endchar
        </CharString>
        <CharString name="bracketleft">
          -133 -217 159 806 159 hstem
          19 539 vstem
          19 -217 rmoveto
          341 hlineto
          28 159 rlineto
          -157 hlineto
          143 806 rlineto
          156 hlineto
          28 159 rlineto
          -341 hlineto
          endchar
        </CharString>
        <CharString name="bracketright">
          -134 -219 159 806 158 hstem
          -15 539 vstem
          183 904 rmoveto
          -28 -158 rlineto
          157 hlineto
          -143 -806 rlineto
          -156 hlineto
          -28 -159 rlineto
          341 hlineto
          198 1123 rlineto
          endchar
        </CharString>
        <CharString name="breve">
          -277 602 339 callsubr
          95 366 hintmask 10100000
          457 790 rmoveto
          hintmask 01100000
          314 callgsubr
          hintmask 10100000
          209 callgsubr
          hintmask 01100000
          34 callsubr
          hintmask 10100000
          10 callsubr
          endchar
        </CharString>
        <CharString name="brokenbar">
          -248 -137 421 118 420 hstem
          31 365 vstem
          105 284 rmoveto
          -74 -421 322 callgsubr
          75 421 rlineto
          20 118 rmoveto
          74 420 -12 callsubr
          -75 -420 rlineto
          endchar
        </CharString>
        <CharString name="bullet">
          -136 175 318 hstem
          106 324 vstem
          240 175 rmoveto
          90 81 69 89 16 hvcurveto
          90 16 -57 70 -90 hhcurveto
          -89 -82 -70 -90 -16 hvcurveto
          -89 -17 59 -69 89 hhcurveto
          endchar
        </CharString>
        <CharString name="c">
          -72 callgsubr
          endchar
        </CharString>
        <CharString name="cacute">
          -72 callgsubr
          227 451 -68 callsubr
          endchar
        </CharString>
        <CharString name="caron">
          -315 593 216 hstem
          80 343 vstem
          248 721 -56 callsubr
        </CharString>
        <CharString name="ccaron">
          -72 callgsubr
          354 440 -56 callsubr
        </CharString>
        <CharString name="ccedilla">
          -48 646 callsubr
          -92 289 -289 344 -196 -21 348 222 669 callgsubr
          366 callgsubr
          hintmask 11001101
          474 callsubr
          -27 -157 72 -104 131 -22 213 callsubr
          6 35 rlineto
          hintmask 10010101
          117 19 94 78 45 120 rrcurveto
          -209 hlineto
          hintmask 10100011
          -35 -16 -25 -20 -38 hhcurveto
          -47 -26 40 81 14 hvcurveto
          80 14 39 40 48 hhcurveto
          hintmask 11001101
          37 19 -21 -34 5 hvcurveto
          209 hlineto
          141 -4 -90 81 -142 hhcurveto
          -167 -136 -109 -178 -32 hvcurveto
          endchar
        </CharString>
        <CharString name="cdotaccent">
          -72 callgsubr
          335 339 -61 callsubr
        </CharString>
        <CharString name="cedilla">
          -327 -269 103 42 92 -92 131 hstemhm
          -88 331 hintmask 10110000
          139 7 rmoveto
          -115 hlineto
          -24 -131 rlineto
          5 callgsubr
          hintmask 11010000
          471 callgsubr
          endchar
        </CharString>
        <CharString name="cent">
          -50 -84 236 -236 282 -183 -21 318 203 -203 281 -235 235 hstemhm
          21 545 -545 546 hintmask 01001001
          545 198 rmoveto
          -180 hlineto
          hintmask 10000101
          -31 -14 -34 -15 -33 hhcurveto
          -57 -25 38 64 11 hvcurveto
          65 11 40 39 57 hhcurveto
          hintmask 00101010
          33 25 -14 -32 6 hvcurveto
          181 hlineto
          hintmask 00110010
          12 122 -85 71 -116 10 rrcurveto
          hintmask 00101010
          14 78 rlineto
          -63 hlineto
          -14 -78 -153 -12 -108 -95 -27 -153 rlinecurve
          -27 -153 75 -95 148 -13 rrcurveto
          hintmask 01001010
          -13 -78 rlineto
          63 hlineto
          13 78 rlineto
          hintmask 01001001
          120 10 110 72 30 122 rrcurveto
          endchar
        </CharString>
        <CharString name="circumflex">
          -315 593 216 hstem
          65 343 vstem
          408 724 -55 callgsubr
          endchar
        </CharString>
        <CharString name="colon">
          -353 -8 203 199 203 hstem
          0 233 vstem
          231 351 callsubr
          402 vmoveto
          354 callsubr
        </CharString>
        <CharString name="colon.ss01">
          -335 0 193 205 193 hstem
          13 304 vstem
          13 620 callgsubr
          36 205 rmoveto
          198 hlineto
          35 193 rlineto
          -199 hlineto
          endchar
        </CharString>
        <CharString name="comma">
          -336 -123 297 hstem
          -27 289 vstem
          -27 -123 rmoveto
          129 hlineto
          160 297 612 callsubr
        </CharString>
        <CharString name="comma.ss01">
          -395 -193 73 75 172 hstem
          48.5 122.5 vstem
          -2 127 rmoveto
          -29 -172 rlineto
          81 hlineto
          -3 -14 rlineto
          -50 -9 -22 562 callsubr
          9 50 -5 53 -14 41 rrcurveto
          endchar
        </CharString>
        <CharString name="copyright">
          120 -7 61 -61 139 172 102 172 138 -60 60 hstemhm
          39 66 -66 135 448 139 -66 66 hintmask 1010110010000000
          464 716 rmoveto
          -210 -170 -148 -212 -38 hvcurveto
          -212 -37 118 -151 210 hhcurveto
          209 171 151 212 37 hvcurveto
          212 38 -118 148 -210 hhcurveto
          -10 -60 rmoveto
          178 89 -117 -183 -32 hvcurveto
          -182 -31 -133 -120 -177 hhcurveto
          -179 -89 120 182 31 hvcurveto
          183 33 131 117 179 hhcurveto
          hintmask 0111001100000000
          -12 -78 rmoveto
          106 75 -65 -107 -1 hvcurveto
          -165 hlineto
          23 -3 -13 19 -29 hhcurveto
          -38 -30 -30 -63 -11 hvcurveto
          -63 -11 19 -30 38 hhcurveto
          31 18 20 22 11 hvcurveto
          165 hlineto
          -105 -37 -97 -67 -107 hhcurveto
          -132 -77 86 137 25 hvcurveto
          137 24 107 86 132 hhcurveto
          endchar
        </CharString>
        <CharString name="currency">
          -65 194 113 142 111 hstemhm
          93 140 callsubr
          442 hintmask 11100000
          380 377 rmoveto
          -50 -9 -36 -20 -34 hhcurveto
          -35 -28 20 50 9 hvcurveto
          51 8 36 21 35 hhcurveto
          34 29 -21 -51 -9 hvcurveto
          hintmask 11010000
          53 -233 rmoveto
          85 74 -42 51 29 30 19 37 8 43 rlinecurve
          7 44 -7 36 -18 29 62 53 rcurveline
          -61 74 -81 -68 rlineto
          8 -25 -30 5 -34 hhcurveto
          -34 -33 -5 -9 -29 hvcurveto
          hintmask 11100000
          -57 69 -86 -74 44 -54 -28 -29 -19 -36 -7 -43 rlinecurve
          -7 -42 5 -36 17 -29 -63 -54 rcurveline
          61 -74 78 66 rlineto
          -10 26 32 -6 35 hhcurveto
          35 33 5 10 30 hvcurveto
          endchar
        </CharString>
        <CharString name="d">
          76 callgsubr
          172 -20 366 callgsubr
          hintmask 01111000
          474 callsubr
          hintmask 10111000
          -179 -31 86 -109 134 hhcurveto
          78 63 35 50 38 hvcurveto
          hintmask 01111000
          -15 -78 rlineto
          100 callsubr
          -45 -256 rlineto
          51 -22 -52 33 -74 hhcurveto
          -134 8 callgsubr
          endchar
        </CharString>
        <CharString name="dagger">
          31 -268 1059 -1038 -21 688 141 hstemhm
          73 611 hintmask 01110000
          467 547 rmoveto
          hintmask 10010000
          63 244 315 callgsubr
          hintmask 01110000
          -24 -244 -210 14 -26 -148 215 14 -141 -695 322 callgsubr
          103 695 211 -14 27 148 rlineto
          endchar
        </CharString>
        <CharString name="daggerdbl">
          30 -268 372 -134.5 134.5 316 141 -141 371 hstemhm
          -7 691 hintmask 10101000
          684 561 rmoveto
          -217 -14 rlineto
          hintmask 10011000
          62 244 315 callgsubr
          hintmask 10101000
          -23 -244 -210 14 -27 -148 216 14 -58 -330 -210 14 rlineto
          hintmask 01101000
          -27 -148 216 13 rlineto
          hintmask 10101000
          -63 -244 450 callgsubr
          hintmask 01101000
          24 244 211 -13 rlineto
          hintmask 10101000
          27 148 -217 -14 58 330 211 -14 rlineto
          endchar
        </CharString>
        <CharString name="danda">
          -292 470 callgsubr
          79 309 433 callsubr
          endchar
        </CharString>
        <CharString name="dcaron">
          203 59 callgsubr
          -118 72 84 134 366 callgsubr
          584.5 538 callsubr
          hintmask 01101110
          762 740 rmoveto
          -24 -134 rlineto
          68 hlineto
          hintmask 01011110
          -3 -15 rlineto
          -47 -8 -23 -22 -35 hhcurveto
          -12 -72 rlineto
          104 536 callsubr
          7 39 1 43 -8 44 rrcurveto
          hintmask 10101110
          -883 -459 506 callgsubr
          hintmask 01101110
          -15 -78 rlineto
          100 callsubr
          -45 -256 rlineto
          51 -22 -52 33 -74 hhcurveto
          hintmask 10101110
          -134 -6 callsubr
          hintmask 01101110
          -67 callsubr
          hintmask 10101110
          134 callsubr
          endchar
        </CharString>
        <CharString name="dcroat">
          43 59 callgsubr
          24 88 -88 148 366 callgsubr
          hintmask 10101100
          23 281 506 callgsubr
          hintmask 01001100
          -15 -78 450 callgsubr
          105 592 rlineto
          63 hlineto
          hintmask 01010100
          16 88 rlineto
          -64 hlineto
          hintmask 01001100
          11 60 315 callgsubr
          hintmask 01010100
          -11 -60 rlineto
          -63 hlineto
          hintmask 01001100
          -16 -88 rlineto
          64 hlineto
          hintmask 01101100
          -19 -108 rlineto
          51 -22 -52 33 -74 hhcurveto
          hintmask 10101100
          -134 -6 callsubr
          hintmask 01101100
          -67 callsubr
          hintmask 10101100
          134 callsubr
          endchar
        </CharString>
        <CharString name="degree">
          -175 347 105 157 103 hstem
          64 438 vstem
          67 531 rmoveto
          -112 -19 77 -72 129 hhcurveto
          128 97 72 112 20 hvcurveto
          114 20 -75 67 -128 hhcurveto
          -129 -99 -67 -114 -21 hvcurveto
          281 -1 rmoveto
          -56 -10 -36 -22 -29 hhcurveto
          -32 -33 22 56 10 hvcurveto
          56 10 39 23 31 hhcurveto
          30 30 -23 -56 -10 hvcurveto
          endchar
        </CharString>
        <CharString name="dieresis">
          -263 620 160 hstem
          82 365 callsubr
          vstem
          149 620 -88 callgsubr
          endchar
        </CharString>
        <CharString name="divide">
          -74 11 203 43 177 42 203 430 callsubr
          296 -322 rmoveto
          -70 callsubr
          103 465 rmoveto
          354 callsubr
        </CharString>
        <CharString name="divide.ss01">
          -74 19 194 44 177 44 193 430 callsubr
          82 -415 rmoveto
          198 hlineto
          35 194 rlineto
          -199 hlineto
          47 265 rmoveto
          198 hlineto
          34 193 rlineto
          -199 hlineto
          endchar
        </CharString>
        <CharString name="dollar">
          6 -87 304 -222 222 -201 -21 502 218 -218 299 hstemhm
          24 620 -571 214 -214 531 -531 569 -250 212 -174 212 hintmask 1001010000000000
          227 -87 rmoveto
          63 hlineto
          14 80 168 6 110 95 19 112 rlinecurve
          hintmask 0011000100000000
          29 161 -146 31 -103 33 rrcurveto
          hintmask 0011000000100000
          22 127 19 -9 11 -19 -3 -33 rlinecurve
          hintmask 0011000010000000
          212 hlineto
          14 133 -81 74 -144 11 rrcurveto
          hintmask 0010100010000000
          14 81 rlineto
          -63 hlineto
          -14 -81 -142 -8 -127 -74 -23 -129 rlinecurve
          hintmask 0101000100000000
          -29 -164 141 -32 103 -30 -22 -128 rcurveline
          -24 10 -12 21 3 36 rrcurveto
          -210 hlineto
          -16 -135 92 -74 139 -13 rrcurveto
          hintmask 0011001001000000
          151 206 rmoveto
          -6 -30 -23 -20 -32 -6 20 113 rcurveline
          29 -13 17 -17 -5 -27 rrcurveto
          -105 312 rmoveto
          4 29 20 17 30 5 -19 -109 rcurveline
          -25 14 -15 17 5 27 rrcurveto
          endchar
        </CharString>
        <CharString name="dotaccent">
          -475 620 160 hstem
          82 162 vstem
          149 620 -61 callsubr
        </CharString>
        <CharString name="dotlessi">
          -308 21 449 callgsubr
          hstem
          25 295 vstem
          25 hmoveto
          12 callsubr
          endchar
        </CharString>
        <CharString name="dottedcircle">
          -4 -9 84 -70 84 -52 84 -40 84 -32 84 -23 84 -25 84 -22 84 -32 84 -37 84 -57 84 -69 84 hstemhm
          50 86 -71 86 -56 86 -40 86 -34 86 -21 86 -27 86 -24 86 -33 86 -47 86 -52 86 -76 86 hintmask 000100001000001000000100
          557 409 -33 callgsubr
          -376 -286 -33 callgsubr
          hintmask 010001000000100010000000
          98 -76 -33 callgsubr
          -143 189 -33 callgsubr
          hintmask 100000010000010000100000
          267 -203 -33 callgsubr
          -252 324 -33 callgsubr
          hintmask 001000000100000100001000
          367 -278 -33 callgsubr
          -291 377 -33 callgsubr
          hintmask 000010000001000001000010
          364 -281 -33 callgsubr
          -247 323 -33 callgsubr
          hintmask 000000100010000000010001
          257 -203 -33 callgsubr
          -136 188 -33 callgsubr
          endchar
        </CharString>
        <CharString name="doubledanda">
          1 470 callgsubr
          79 601 433 callsubr
          112 hmoveto
          -130 -740 rlineto
          180 hlineto
          130 740 rlineto
          endchar
        </CharString>
        <CharString name="dvA">
          186 25 callgsubr
          88 hlineto
          25 150 rlineto
          -267 23 callsubr
          hintmask 1000010010000000
          56 callsubr
          hintmask 0000100110000000
          69 callgsubr
          endchar
        </CharString>
        <CharString name="dvAA">
          512 25 callgsubr
          145 hlineto
          -103 -590 85 callsubr
          86 hlineto
          27 150 rlineto
          -593 23 callsubr
          hintmask 1000010010000000
          56 callsubr
          hintmask 0000100110000000
          69 callgsubr
          endchar
        </CharString>
        <CharString name="dvAI">
          515 callgsubr
          121 145 hstemhm
          24 708 hintmask 01011100
          284 19 rmoveto
          146 103 81 144 24 hvcurveto
          -177 hlineto
          hintmask 10011100
          116 callsubr
          hintmask 01101100
          524 callsubr
          hintmask 01011100
          12 67 rlineto
          79 -86 callsubr
          -90 hlineto
          -86 235 -51 30 -162 1 rrcurveto
          -53 hlineto
          -26 -145 rlineto
          56 hlineto
          85 18 -17 -104 50 hvcurveto
          -422 254 callgsubr
          endchar
        </CharString>
        <CharString name="dvAU">
          129 callsubr
          50 647 callgsubr
          hstemhm
          365 166 hintmask 1000001011100000
          703 hmoveto
          104 callgsubr
          -89 hlineto
          326 -112 269 callgsubr
          106 -10 0 -59 92 hvcurveto
          -346 23 callsubr
          hintmask 1000010011100000
          56 callsubr
          hintmask 0100100111100000
          69 callgsubr
          -47 hlineto
          68 callgsubr
          hintmask 0010001011100000
          80 callsubr
          hintmask 0001001011100000
          230 callgsubr
          hintmask 1000001011100000
          -43 -242 rlineto
          endchar
        </CharString>
        <CharString name="dvAbbreviationsign">
          -185 163 106 127 106 hstem
          59 111 130 112 vstem
          266 502 rmoveto
          -103 -84 -70 -100 -17 hvcurveto
          -99 -18 61 -70 103 hhcurveto
          101 82 70 99 18 hvcurveto
          100 18 -59 70 -102 hhcurveto
          -18 -106 rmoveto
          37 21 -27 -37 -6 hvcurveto
          -38 -7 -30 -25 -37 hhcurveto
          -39 -24 26 37 7 hvcurveto
          37 6 33 27 39 hhcurveto
          endchar
        </CharString>
        <CharString name="dvAcandra">
          186 11 callgsubr
          70 50 callsubr
          88 hlineto
          25 150 rlineto
          -267 23 callsubr
          hintmask 1000010010100000
          56 callsubr
          hintmask 0000100101100000
          69 callgsubr
          783 557 164 callgsubr
        </CharString>
        <CharString name="dvAnusvara">
          -655 806 205 hstem
          -177 210 vstem
          31 908 rmoveto
          58 10 -38 207 callsubr
          667 callgsubr
        </CharString>
        <CharString name="dvAnusvara.amI">
          -655 806 205 hstem
          32 209 vstem
          240 908 rmoveto
          58 9 -37 207 callsubr
          667 callgsubr
        </CharString>
        <CharString name="dvAvagraha">
          -52 42 151 327 152 hstemhm
          141 183 -183 349 -183 183 hintmask 11010000
          280 42 rmoveto
          104 85 55 99 18 hvcurveto
          hintmask 11100000
          31 180 -206 51 12 67 rrcurveto
          23 3 22 3 16 hhcurveto
          189 hlineto
          27 152 rlineto
          -236 hlineto
          -102 -81 -51 -99 -18 hvcurveto
          hintmask 11001000
          -31 -178 206 -53 -12 -68 rrcurveto
          -20 -3 -17 -10 -27 hhcurveto
          -238 hlineto
          -27 -151 rlineto
          endchar
        </CharString>
        <CharString name="dvB">
          -276 48 123 242 607 callgsubr
          24 629 -223 143 hintmask 11110000
          570 296 rmoveto
          hintmask 11101000
          126 19 -77 112 -175 -40 callsubr
          hintmask 11110000
          180 103 113 135 20 hvcurveto
          -242 117 rmoveto
          hintmask 11101000
          281 callgsubr
          -3 -14 -4 -14 -7 -12 -167 139 rcurveline
          hintmask 11110000
          143 callgsubr
          299 177 -91 callsubr
          -602 -107 callgsubr
          262 352 callsubr
          endchar
        </CharString>
        <CharString name="dvBA">
          32 0 532 callgsubr
          242 115 57 673 callgsubr
          160 hintmask 10111000
          550 hmoveto
          -5 callsubr
          -715 -107 callgsubr
          455 hlineto
          134 callgsubr
          -146 -112 -89 -139 -24 hvcurveto
          hintmask 01111000
          219 callsubr
          hintmask 10111000
          -28 callgsubr
          endchar
        </CharString>
        <CharString name="dvBH">
          -104 49 532 callsubr
          46 235 -153 153 hstemhm
          24 128 callsubr
          hintmask 11101010
          246 201 -58 callgsubr
          204 hlineto
          26 147 rlineto
          -205 385 callsubr
          hintmask 11100110
          -147 -85 -87 -111 -20 hvcurveto
          47 callsubr
          hintmask 11010110
          -21 callsubr
          hintmask 11101010
          29 callgsubr
        </CharString>
        <CharString name="dvBHA">
          216 21 -21 49 532 callsubr
          46 89 callsubr
          hintmask 1110101010000000
          246 201 -58 callgsubr
          109 hlineto
          -56 656 callsubr
          88 hlineto
          26 150 rlineto
          -270 258 callgsubr
          hintmask 1111000110000000
          31 callgsubr
          hintmask 1110010110000000
          -21 callsubr
          hintmask 1110101010000000
          29 callgsubr
        </CharString>
        <CharString name="dvBH_LA">
          808 17 156 -124 152 34 415 callgsubr
          -32 callgsubr
          -226 89 callsubr
          37 -19 callsubr
          hintmask 0100100010101001
          246 201 269 callsubr
          640 callsubr
          hintmask 1000100010101100
          -148 -27 77 -116 174 hhcurveto
          7 13 callsubr
          28 156 rlineto
          -1 -8 -8 -1 -7 hhcurveto
          -60 -29 37 61 11 hvcurveto
          hintmask 1000001000101001
          53 10 33 35 50 hhcurveto
          57 11 -48 -49 -9 hvcurveto
          hintmask 1001000000101001
          -5 -27 rlineto
          hintmask 1001000000101010
          149 hlineto
          hintmask 1000001000101010
          -33 callsubr
          -9 hvcurveto
          -63 -11 -45 -35 -52 138 callsubr
          -29 -156 rlineto
          -1 10 18 -1 7 hhcurveto
          hintmask 1010000010101001
          523 callgsubr
          125 callsubr
          18 103 rcurveline
          125 callgsubr
          -888 -63 callgsubr
          533 hlineto
          -13 -79 -63 578 callgsubr
          hintmask 1000010010101001
          57 -18 -50 47 -93 hhcurveto
          hintmask 1000100100011001
          -56 -58 -15 -35 -48 hvcurveto
          -163 hlineto
          6 36 rlineto
          31 callgsubr
          hintmask 1000100001011001
          -21 callsubr
          hintmask 0100100010101001
          29 callgsubr
        </CharString>
        <CharString name="dvBH_NA">
          729 0 494 -445 152 -147 662 callsubr
          20 89 callsubr
          40 167 -167 446 -139 142 hintmask 0101001010110100
          246 201 -58 callgsubr
          90 hlineto
          -4 -11 448 callgsubr
          hintmask 0010001010110100
          -14 callsubr
          hintmask 0010101010101000
          310 callgsubr
          110 hlineto
          hintmask 1000001010110100
          -61 -344 rlineto
          180 hlineto
          150 callsubr
          -802 -107 callgsubr
          535 hlineto
          191 callsubr
          hintmask 0001010001110100
          -49 -47 -8 -18 -41 hvcurveto
          -199 hlineto
          6 36 rlineto
          31 callgsubr
          hintmask 0001000101110100
          -1 11 1 9 2 10 rrcurveto
          30 5 20 22 27 598 callsubr
          -129 -119 -66 -143 -25 hvcurveto
          hintmask 0100001010110100
          -127 -23 79 -83 138 hhcurveto
          hintmask 0101001010110100
          150 92 344 callsubr
          hintmask 0010101010110100
          252 -9 rmoveto
          41 6 35 62 callsubr
          -40 -7 398 callsubr
          40 8 hvcurveto
          endchar
        </CharString>
        <CharString name="dvBH_R">
          -105 -94 312 -147 147 113 144 42 232 -153 153 hstemhm
          99 176 94 163 hintmask 01110110
          600 callsubr
          8 33 216 callgsubr
          209 hlineto
          25 144 rlineto
          -208 hlineto
          5 29 rlineto
          165 callgsubr
          hintmask 01101110
          212 callgsubr
          hintmask 01110110
          146 95 95 136 23 hvcurveto
          hintmask 10110110
          -104 -396 rmoveto
          286 244 28 162 -510 -406 rlineto
          endchar
        </CharString>
        <CharString name="dvBH_RA">
          236 -94 312 -197 -21 71 147 113 144 42 232 159 callsubr
          99 176 94 163 hintmask 0111010010000000
          600 callsubr
          8 33 216 callgsubr
          144 hlineto
          -14 -79 rlineto
          hintmask 1001010010000000
          -435 -346 322 callgsubr
          hintmask 0111010010000000
          221 188 -17 -94 rlineto
          162 -81 callsubr
          88 -86 callsubr
          -261 hlineto
          -46 522 callsubr
          hintmask 0111100110000000
          165 callgsubr
          hintmask 0111001110000000
          212 callgsubr
          hintmask 0111010010000000
          146 95 95 136 23 hvcurveto
          endchar
        </CharString>
        <CharString name="dvBH_R_YA">
          640 -94 312 -218 222 -151 147 -146 150 109 137 49 232 159 callsubr
          27 169 -97 176 94 163 hintmask 0010101010100000
          600 callsubr
          7 34 216 callgsubr
          83 hlineto
          -6 -41 3 -37 9 -33 rrcurveto
          hintmask 1000101010100000
          -394 -314 322 callgsubr
          hintmask 0001101010100000
          258 221 rlineto
          -36 42 60 -19 73 hhcurveto
          75 61 23 39 45 hvcurveto
          hintmask 0100101010100000
          28 callsubr
          -136 452 callgsubr
          hintmask 0100110001100000
          165 callgsubr
          hintmask 0100100101100000
          11 0 8 2 10 vhcurveto
          28 5 19 22 29 hhcurveto
          35 9 -24 -35 -5 hvcurveto
          -12 -69 rlineto
          -55 hlineto
          -129 -118 -61 -134 -24 hvcurveto
          hintmask 0010101010100000
          -122 -22 80 -80 136 hhcurveto
          146 95 95 136 23 hvcurveto
          hintmask 0100101010100000
          381 -80 43 callsubr
          endchar
        </CharString>
        <CharString name="dvBH_VA">
          554 457 callsubr
          -12 89 callsubr
          42 178 hintmask 1001001010110000
          835 274 callsubr
          hintmask 1000101010110000
          53 9 46 40 57 hhcurveto
          59 28 -41 -49 -8 hvcurveto
          -5 vlineto
          hintmask 1001001010110000
          -48 -9 -42 -44 -60 hhcurveto
          hintmask 0101001010110000
          194 callsubr
          hintmask 0011001010110000
          362 callsubr
          hintmask 1000101010110000
          89 callgsubr
          hintmask 1001010001110000
          -68 -59 -21 -37 -44 hvcurveto
          -149 hlineto
          6 36 rlineto
          31 callgsubr
          hintmask 1001000101110000
          -21 callsubr
          hintmask 0101001010110000
          29 callgsubr
        </CharString>
        <CharString name="dvBH_YA">
          640 443 callgsubr
          99 147 46 89 callsubr
          hintmask 0101010101000000
          246 201 rmoveto
          65 callgsubr
          44 hhcurveto
          47 64 callsubr
          hintmask 1001010101000000
          624 21 43 callsubr
          hintmask 0101010101000000
          -380 61 508 callsubr
          78 hlineto
          hintmask 0011010101000000
          364 callgsubr
          hintmask 1001010101000000
          28 callsubr
          -133 452 callgsubr
          hintmask 1001100011000000
          31 callgsubr
          hintmask 1001001011000000
          -21 callsubr
          hintmask 0101010101000000
          29 callgsubr
        </CharString>
        <CharString name="dvB_BA">
          428 0 176 -128 123 -122 127 237 121 -116 650 callsubr
          322 -94 callsubr
          24 1138 hintmask 10010011
          316 callsubr
          618 -413 rmoveto
          -5 callsubr
          -1111 -107 callgsubr
          851 hlineto
          hintmask 10001011
          134 callgsubr
          -76 -67 -24 -43 -50 hvcurveto
          hintmask 01010011
          42 -39 -61 26 -85 -40 callsubr
          87 70 27 42 50 hvcurveto
          hintmask 00110011
          -42 35 55 -26 67 336 callgsubr
          hintmask 10010011
          -19 -106 rlineto
          hintmask 01010011
          -486 171 -74 callgsubr
          hintmask 10000101
          406 5 28 callgsubr
        </CharString>
        <CharString name="dvB_BHA">
          611 21 -21 48 123 -122 532 callsubr
          -55 121 56 445 callgsubr
          761 169 hintmask 10110101
          641 665 callgsubr
          7 35 21 43 hhcurveto
          47 194 callgsubr
          -42 -8 -23 -30 -43 hhcurveto
          651 callgsubr
          -56 -321 rlineto
          180 hlineto
          105 133 callgsubr
          -269 hlineto
          -48 -272 rlineto
          -111 452 callgsubr
          hintmask 11010011
          64 callgsubr
          hintmask 11010101
          -28 -25 -3 -6 -23 hvcurveto
          -621 -107 callgsubr
          684 hlineto
          3 7 7 3 7 568 callgsubr
          -52 -11 -24 -44 hvcurveto
          hintmask 11001101
          60 -34 -70 41 -106 -40 callsubr
          80 64 22 36 49 hvcurveto
          hintmask 10110101
          -36 34 54 -21 69 hhcurveto
          150 92 344 callsubr
          hintmask 11001101
          -557 130 -43 callgsubr
          endchar
        </CharString>
</ttFont>
